<svg width="42" height="42" viewBox="0 0 42 42" fill="none" xmlns="http://www.w3.org/2000/svg">
<path d="M29.6543 8.92543V35.568C29.6543 36.2371 29.1107 36.7792 28.4432 36.7792H10.2773C9.60819 36.7792 9.06614 36.2371 9.06614 35.568V8.92543H7.85497C7.18585 8.92543 6.64381 8.38178 6.64381 7.71426C6.64381 7.04514 7.18585 6.50309 7.85497 6.50309H34.4974C35.1665 6.50309 35.7086 7.04514 35.7086 7.71426C35.7086 8.38178 35.1665 8.92543 34.4974 8.92543H29.6543ZM3.01022 12.5573H4.82619C5.49531 12.5573 6.03736 13.101 6.03736 13.7685C6.03736 14.4376 5.49531 14.9797 4.82619 14.9797H1.79906C1.12994 14.9797 0.587891 14.4376 0.587891 13.7685V1.65844C0.587891 0.989316 1.12994 0.447266 1.79906 0.447266H40.5532C41.2223 0.447266 41.7644 0.989316 41.7644 1.65844V13.7685C41.7644 14.4376 41.2223 14.9797 40.5532 14.9797H38.1308C37.4617 14.9797 36.9197 14.4376 36.9197 13.7685C36.9197 13.101 37.4617 12.5573 38.1308 12.5573H39.342V2.86969H3.01031L3.01022 12.5573ZM11.4868 8.92543V34.357H27.2319V8.92543H11.4868ZM22.3566 24.6385C22.8295 24.1656 23.5967 24.1656 24.0696 24.6385C24.5425 25.1114 24.5425 25.8786 24.0696 26.3515C21.4688 28.9524 17.2512 28.9524 14.6489 26.3515C14.176 25.8786 14.176 25.1114 14.6489 24.6385C15.1217 24.1656 15.889 24.1656 16.3619 24.6385C18.017 26.2936 20.7013 26.2936 22.3566 24.6385ZM15.7264 20.4306C14.7227 20.4306 13.9088 19.6167 13.9088 18.613C13.9088 17.6094 14.7227 16.7971 15.7264 16.7971C16.73 16.7971 17.5423 17.6094 17.5423 18.613C17.5423 19.6167 16.73 20.4306 15.7264 20.4306ZM22.992 20.4306C21.9899 20.4306 21.176 19.6167 21.176 18.613C21.176 17.6094 21.9899 16.7971 22.992 16.7971C23.9956 16.7971 24.8095 17.6094 24.8095 18.613C24.8095 19.6167 23.9956 20.4306 22.992 20.4306ZM32.0751 39.2015V13.7682C32.0751 13.1007 32.6188 12.5571 33.2863 12.5571C33.9554 12.5571 34.4974 13.1007 34.4974 13.7682V40.4125C34.4974 41.0816 33.9554 41.6236 33.2863 41.6236H14.5155C13.8464 41.6236 13.3044 41.0816 13.3044 40.4125C13.3044 39.7433 13.8464 39.2013 14.5155 39.2013L32.0751 39.2015Z" fill="#235794"/>
</svg>
