<svg width="50" height="38" viewBox="0 0 50 38" fill="none" xmlns="http://www.w3.org/2000/svg">
<path d="M2.88198 24.4484V33.6616C2.88439 35.5918 4.47194 37.1532 6.42626 37.1532H43.5726C45.5269 37.1532 47.1145 35.5918 47.1169 33.6616V24.4484C48.591 24.2699 49.7009 23.0394 49.7057 21.5732V15.0421C49.7033 13.4356 48.3811 12.1361 46.7526 12.1361H32.3439C33.0268 11.741 33.6685 11.2841 34.2645 10.7699C37.1429 8.23512 38.9283 5.45044 38.9283 3.50587V3.50825C38.9548 2.78233 38.6604 2.08017 38.1176 1.58756C35.9703 -0.276046 31.4105 2.03977 28.0881 4.98153C26.7732 6.1573 25.7213 7.5925 24.9999 9.19191C24.2784 7.5925 23.2265 6.1573 21.9116 4.98153C18.57 2.03978 14.005 -0.276046 11.8871 1.58756C11.3466 2.08023 11.0498 2.78233 11.0788 3.50825C11.0788 5.45277 12.8642 8.23744 15.7426 10.7723V10.7699C16.3289 11.2816 16.9634 11.7386 17.6366 12.1361H3.24707C1.6185 12.1361 0.296354 13.4356 0.293945 15.0421V21.5732C0.29877 23.0393 1.40863 24.2699 2.88278 24.4484H2.88198ZM19.7927 34.8065H6.42607C5.77704 34.8136 5.24382 34.3019 5.23419 33.6616V24.4862H19.7923L19.7927 34.8065ZM27.8222 34.8065H22.1523V24.4484H27.8464L27.8222 34.8065ZM44.7645 33.6616C44.7621 34.3043 44.2313 34.8255 43.5774 34.8255H30.2064V24.4675H44.7645L44.7645 33.6616ZM46.7598 14.4565C47.0879 14.4565 47.3606 14.7112 47.3774 15.0349V21.5727C47.3774 21.7345 47.3123 21.8892 47.1965 22.0035C47.0807 22.1177 46.9239 22.182 46.7598 22.182H31.14V14.4609L46.7598 14.4565ZM29.6391 6.71907C32.5729 4.14143 35.1231 3.22748 36.1244 3.22748C36.2619 3.2132 36.4019 3.24414 36.5177 3.31792C36.771 3.7392 35.9676 6.12643 32.6646 9.03248C30.8768 10.4748 28.7536 11.453 26.488 11.8791C27.0285 9.90359 28.1214 8.11381 29.6391 6.71907ZM28.7801 14.4614V22.1587H21.2188V14.4614H28.7801ZM17.3344 9.03245C14.029 6.1264 13.2328 3.73679 13.4813 3.32265V3.32503C13.5995 3.24649 13.7394 3.21317 13.8818 3.22745C14.8831 3.22745 17.4333 4.14852 20.3598 6.71903C21.8653 8.11853 22.9462 9.90359 23.4866 11.8719C21.2284 11.4458 19.1126 10.47 17.3344 9.03245ZM2.65276 15.0421C2.66965 14.7161 2.93988 14.4614 3.27042 14.4614H18.8588V22.1587H3.24633C2.90372 22.1587 2.62868 21.885 2.62868 21.5494L2.65276 15.0421Z" fill="#A9776C"/>
</svg>
