<svg width="48" height="36" viewBox="0 0 48 36" fill="none" xmlns="http://www.w3.org/2000/svg">
<path d="M27.5968 6.7174C30.1641 6.7174 32.2184 8.87938 32.2184 11.422C32.2184 13.9647 30.1641 15.9992 27.5968 15.9992C25.0294 15.9992 22.9752 13.9647 22.9752 11.422C22.9752 8.87938 25.0294 6.7174 27.5968 6.7174ZM27.5968 8.87938C26.3131 8.87938 25.1563 10.0232 25.1563 11.422C25.1563 12.6933 26.3112 13.839 27.5968 13.839C29.0092 13.839 30.1641 12.6952 30.1641 11.422C30.1641 10.0232 29.0092 8.87938 27.5968 8.87938Z" fill="#BDA165"/>
<path d="M1.27419 0.741353H46.7269C47.3688 0.741353 47.8819 1.2495 47.8819 1.88519V34.1855C47.8819 34.8212 47.3688 35.3294 46.7269 35.3294H1.14522C0.632137 35.3294 0.117188 34.8212 0.117188 34.1855V1.75936C0.117188 1.25121 0.630274 0.741211 1.27213 0.741211L1.27419 0.741353ZM28.8807 22.3593L35.1722 17.6546C35.5566 17.3996 36.0715 17.3996 36.3272 17.6546L45.701 23.1226V2.90352H2.30256V32.024L20.7927 18.2909C21.177 18.0359 21.692 18.0359 22.0764 18.2909L28.8807 22.3593ZM45.701 25.6651L35.9427 19.8149L30.935 23.5032L45.701 32.2769V25.6651ZM42.8761 33.1672L21.5612 20.4502L4.48344 33.1672H42.8761Z" fill="#BDA165"/>
</svg>
