<svg width="25" height="26" viewBox="0 0 25 26" fill="none" xmlns="http://www.w3.org/2000/svg">
<path d="M12.0199 4C8.3399 4 5.3599 6.98 5.3599 10.66V12.76C5.3599 13.44 5.0799 14.46 4.7299 15.04L3.4599 17.16C2.6799 18.47 3.2199 19.93 4.6599 20.41C9.4399 22 14.6099 22 19.3899 20.41C20.7399 19.96 21.3199 18.38 20.5899 17.16L19.3199 15.04C18.9699 14.46 18.6899 13.43 18.6899 12.76V10.66C18.6799 7 15.6799 4 12.0199 4Z" stroke="white" stroke-width="1.5" stroke-miterlimit="10" stroke-linecap="round"/>
<path d="M15.3299 20.8198C15.3299 22.6498 13.8299 24.1498 11.9999 24.1498C11.0899 24.1498 10.2499 23.7698 9.64992 23.1698C9.04992 22.5698 8.66992 21.7298 8.66992 20.8198" stroke="white" stroke-width="1.5" stroke-miterlimit="10"/>
<circle cx="18" cy="7" r="5" fill="#FFBE33" stroke="#0C345C" stroke-width="4"/>
</svg>
