<svg width="31" height="30" viewBox="0 0 31 30" fill="none" xmlns="http://www.w3.org/2000/svg">
<path d="M6.44922 21.25C6.44922 21.913 6.71261 22.5489 7.18145 23.0178C7.65029 23.4866 8.28618 23.75 8.94922 23.75C9.61226 23.75 10.2481 23.4866 10.717 23.0178C11.1858 22.5489 11.4492 21.913 11.4492 21.25C11.4492 20.587 11.1858 19.9511 10.717 19.4822C10.2481 19.0134 9.61226 18.75 8.94922 18.75C8.28618 18.75 7.65029 19.0134 7.18145 19.4822C6.71261 19.9511 6.44922 20.587 6.44922 21.25Z" stroke="black" stroke-width="1.5" stroke-linecap="round" stroke-linejoin="round"/>
<path d="M18.9492 21.25C18.9492 21.913 19.2126 22.5489 19.6815 23.0178C20.1503 23.4866 20.7862 23.75 21.4492 23.75C22.1123 23.75 22.7481 23.4866 23.217 23.0178C23.6858 22.5489 23.9492 21.913 23.9492 21.25C23.9492 20.587 23.6858 19.9511 23.217 19.4822C22.7481 19.0134 22.1123 18.75 21.4492 18.75C20.7862 18.75 20.1503 19.0134 19.6815 19.4822C19.2126 19.9511 18.9492 20.587 18.9492 21.25Z" stroke="black" stroke-width="1.5" stroke-linecap="round" stroke-linejoin="round"/>
<path d="M6.44922 21.25H3.94922V16.25M2.69922 6.25H16.4492V21.25M11.4492 21.25H18.9492M23.9492 21.25H26.4492V13.75M26.4492 13.75H16.4492M26.4492 13.75L22.6992 7.5H16.4492" stroke="black" stroke-width="1.5" stroke-linecap="round" stroke-linejoin="round"/>
<path d="M3.94922 11.25H8.94922" stroke="black" stroke-width="1.5" stroke-linecap="round" stroke-linejoin="round"/>
</svg>
