<svg width="31" height="30" viewBox="0 0 31 30" fill="none" xmlns="http://www.w3.org/2000/svg">
<path d="M17.9004 3.75V8.75C17.9004 9.08152 18.0321 9.39946 18.2665 9.63388C18.5009 9.8683 18.8189 10 19.1504 10H24.1504" stroke="black" stroke-width="1.5" stroke-linecap="round" stroke-linejoin="round"/>
<path d="M21.6504 26.25H9.15039C8.48735 26.25 7.85146 25.9866 7.38262 25.5178C6.91378 25.0489 6.65039 24.413 6.65039 23.75V6.25C6.65039 5.58696 6.91378 4.95107 7.38262 4.48223C7.85146 4.01339 8.48735 3.75 9.15039 3.75H17.9004L24.1504 10V23.75C24.1504 24.413 23.887 25.0489 23.4182 25.5178C22.9493 25.9866 22.3134 26.25 21.6504 26.25Z" stroke="black" stroke-width="1.5" stroke-linecap="round" stroke-linejoin="round"/>
<path d="M11.6504 11.25H12.9004" stroke="black" stroke-width="1.5" stroke-linecap="round" stroke-linejoin="round"/>
<path d="M11.6504 16.25H19.1504" stroke="black" stroke-width="1.5" stroke-linecap="round" stroke-linejoin="round"/>
<path d="M11.6504 21.25H19.1504" stroke="black" stroke-width="1.5" stroke-linecap="round" stroke-linejoin="round"/>
</svg>
