<svg xmlns="http://www.w3.org/2000/svg" fill="none" viewBox="0 0 201 182">
    <path
        fill="#FFD886"
        fill-rule="evenodd"
        d="M81.483 2.215c21.788 2.873 37.706 17.377 53.447 32.71 20.366 19.836 52.579 37.68 47.543 65.658-5.088 28.263-40.87 35.796-67.668 46.133-23.018 8.88-48.214 18.546-70.004 6.976-21.129-11.217-24.698-37.644-31.141-60.678C6.548 67.588-8.944 39.193 6.857 18.04 22.865-3.393 54.959-1.282 81.483 2.214Z"
        clip-rule="evenodd"
    />
    <path
        fill="#fff"
        fill-rule="evenodd"
        d="M122.859 139.522c-3.801-13.277 3.11-28.59 14.332-36.704 10.16-7.346 23.751-3.078 35.784.467 9.341 2.752 18.635 7.588 22.203 16.615 3.14 7.944-4.338 15.217-6.338 23.522-2.794 11.601 3.707 28.584-7.328 33.225-10.916 4.591-18.402-11.873-28.397-18.2-10.575-6.693-26.82-6.922-30.256-18.925Z"
        clip-rule="evenodd"
    />
</svg>
