<svg xmlns="http://www.w3.org/2000/svg" fill="none" viewBox="0 0 126 208">
    <path
        fill="#fff"
        fill-rule="evenodd"
        d="M96.837 67.008c8.159 18.888 14.642 39.987 5.485 58.411-10.149 20.42-30.386 35.972-53.14 37.469-21.847 1.438-38.682-15.286-54.54-30.383-16.65-15.85-37.07-32.273-35.356-55.197 1.76-23.529 22.006-41.377 43.336-51.464 18.478-8.738 39.45-4.728 58.181 3.456 16.762 7.323 28.78 20.916 36.034 37.708Z"
        clip-rule="evenodd"
    />
    <path
        fill="#F8AD9D"
        fill-rule="evenodd"
        d="M74.967 123.007c9.903.29 15.448 10.597 23.242 16.75 9.835 7.765 25.769 10.941 27.594 23.385 1.867 12.725-9.934 23.001-19.546 31.482C97.4 202.44 86.748 208.032 74.967 208c-11.75-.032-23.202-4.811-31.123-13.544-7.606-8.385-10.868-20.038-9.564-31.314 1.178-10.183 8.776-17.61 16.052-24.787 7.17-7.072 14.599-15.642 24.635-15.348Z"
        clip-rule="evenodd"
    />
</svg>
