<?xml version="1.0" encoding="UTF-8"?>
<svg viewBox="0 0 482 434" fill="none" xmlns="http://www.w3.org/2000/svg">
    <path opacity="0.4" d="M498.391 -48.3106C495.618 -47.6108 492.832 -46.7329 490.032 -45.6519C492.189 -48.9025 494.346 -52.1831 496.505 -55.5232C499.658 -57.4028 502.787 -58.9497 505.896 -60.2085C503.392 -56.181 500.891 -52.2199 498.391 -48.3106ZM506.874 -49.8956C504.137 -49.5619 501.387 -49.0578 498.625 -48.3708C501.133 -52.2945 503.644 -56.2695 506.155 -60.3126C509.092 -61.4858 512.009 -62.3928 514.908 -63.0498C512.228 -58.594 509.55 -54.2101 506.874 -49.8956ZM481.516 -33.3117C478.896 -32.6042 476.267 -31.7627 473.628 -30.7808C476.127 -34.2687 478.626 -37.8009 481.127 -41.4039C483.973 -42.9245 486.805 -44.225 489.622 -45.3327C486.918 -41.2614 484.215 -37.2457 481.516 -33.3117ZM489.828 -35.1298C487.148 -34.6829 484.458 -34.1 481.758 -33.3787C484.468 -37.3265 487.179 -41.3556 489.891 -45.4414C492.7 -46.533 495.495 -47.4226 498.275 -48.1299C495.457 -43.726 492.641 -39.3783 489.828 -35.1298ZM498.176 -36.1001C495.476 -35.9181 492.766 -35.6103 490.048 -35.1647C492.866 -39.4223 495.686 -43.7776 498.509 -48.1917C501.277 -48.8851 504.03 -49.395 506.771 -49.7318C503.904 -45.1112 501.038 -40.5577 498.176 -36.1001ZM506.525 -36.2658C503.82 -36.3383 501.106 -36.2916 498.382 -36.1158C501.246 -40.5755 504.114 -45.1334 506.983 -49.7567C509.709 -50.0836 512.422 -50.2466 515.123 -50.2457C512.255 -45.5067 509.389 -40.838 506.525 -36.2658ZM514.844 -35.669C512.144 -35.9815 509.434 -36.1808 506.717 -36.2597C509.58 -40.8329 512.447 -45.5033 515.315 -50.2439C517.999 -50.2365 520.672 -50.0755 523.334 -49.7697C520.501 -44.9903 517.67 -40.2817 514.842 -35.6696L514.844 -35.669ZM464.276 -18.228C461.87 -17.5529 459.459 -16.7879 457.041 -15.9277C459.941 -19.6466 462.844 -23.4283 465.749 -27.2873C468.245 -28.4824 470.733 -29.5408 473.212 -30.4788C470.231 -26.3208 467.252 -22.2321 464.276 -18.228ZM472.316 -20.1596C469.728 -19.6421 467.132 -19.0223 464.53 -18.3C467.512 -22.3122 470.495 -26.4111 473.481 -30.5781C476.127 -31.5686 478.763 -32.4159 481.39 -33.1296C478.362 -28.7222 475.338 -24.4008 472.317 -20.1601L472.316 -20.1596ZM480.624 -21.486C477.94 -21.1632 475.248 -20.7407 472.55 -20.2077C475.575 -24.4543 478.603 -28.7815 481.633 -33.1955C484.338 -33.9216 487.033 -34.512 489.718 -34.9625C486.684 -30.3822 483.652 -25.8924 480.626 -21.4854L480.624 -21.486ZM489.066 -22.1711C486.33 -22.053 483.588 -21.8363 480.838 -21.5102C483.867 -25.9198 486.9 -30.4128 489.936 -34.9969C492.658 -35.4468 495.369 -35.7551 498.072 -35.9402C495.067 -31.2629 492.066 -26.6717 489.066 -22.1711ZM497.576 -22.228C494.814 -22.311 492.046 -22.2955 489.268 -22.1809C492.269 -26.6843 495.272 -31.2765 498.278 -35.9554C501.004 -36.135 503.72 -36.1839 506.427 -36.1124C503.473 -31.3968 500.523 -26.7701 497.576 -22.228ZM506.106 -21.6707C503.334 -21.9457 500.554 -22.133 497.767 -22.2202C500.714 -26.7624 503.665 -31.3895 506.619 -36.1051C509.338 -36.0267 512.048 -35.8274 514.749 -35.5154C511.865 -30.8135 508.984 -26.2053 506.106 -21.6707ZM514.645 -20.5488C511.868 -21.0024 509.084 -21.3716 506.291 -21.6522C509.168 -26.1863 512.049 -30.7944 514.932 -35.4948C517.637 -35.1767 520.335 -34.7414 523.023 -34.2066C520.227 -29.5662 517.435 -25.0267 514.646 -20.5477L514.645 -20.5488ZM523.179 -18.896C520.401 -19.5144 517.615 -20.0584 514.823 -20.519C517.612 -24.9964 520.404 -29.5344 523.198 -34.1726C525.888 -33.6334 528.571 -32.9956 531.246 -32.2587C528.555 -27.7252 525.865 -23.2784 523.18 -18.8965L523.179 -18.896ZM446.587 -3.0561C444.444 -2.44624 442.298 -1.78569 440.149 -1.0592C443.553 -5.0119 446.961 -9.04092 450.371 -13.1681C452.452 -14.0589 454.527 -14.8691 456.599 -15.6166C453.259 -11.3393 449.921 -7.15029 446.587 -3.05449L446.587 -3.0561ZM454.247 -4.99996C451.787 -4.44999 449.323 -3.82864 446.854 -3.13265C450.192 -7.23593 453.534 -11.4335 456.88 -15.7184C459.304 -16.5871 461.724 -17.3584 464.137 -18.0393C460.837 -13.6023 457.54 -9.25264 454.247 -4.99996ZM462.443 -6.57123C459.797 -6.14676 457.146 -5.64224 454.491 -5.05379C457.786 -9.31183 461.086 -13.6669 464.389 -18.1108C466.998 -18.8399 469.598 -19.4635 472.193 -19.9851C468.939 -15.4206 465.69 -10.9476 462.444 -6.57174L462.443 -6.57123ZM470.947 -7.67627C468.195 -7.40425 465.435 -7.0484 462.671 -6.60864C465.919 -10.9883 469.17 -15.4645 472.426 -20.0327C475.129 -20.5694 477.824 -20.9977 480.513 -21.3225C477.322 -16.6791 474.132 -12.1316 470.947 -7.67627ZM479.621 -8.26547C476.806 -8.15538 473.986 -7.97125 471.16 -7.69616C474.345 -12.1531 477.534 -16.7028 480.726 -21.3479C483.479 -21.675 486.223 -21.8938 488.96 -22.0129C485.844 -17.337 482.73 -12.7588 479.621 -8.26547ZM488.409 -8.35868C485.555 -8.4098 482.692 -8.38092 479.825 -8.2731C482.934 -12.7664 486.046 -17.3452 489.164 -22.0217C491.943 -22.1384 494.713 -22.156 497.477 -22.074C494.451 -17.4126 491.428 -12.8412 488.409 -8.35868ZM497.263 -7.95907C494.384 -8.16382 491.497 -8.30058 488.604 -8.35565C491.622 -12.8361 494.643 -17.407 497.668 -22.0662C500.457 -21.9784 503.236 -21.7911 506.01 -21.5177C503.09 -16.92 500.174 -12.3867 497.263 -7.95907ZM506.139 -7.10683C503.25 -7.45597 500.354 -7.73605 497.451 -7.94592C500.362 -12.3708 503.276 -16.9048 506.194 -21.5003C508.987 -21.2198 511.772 -20.8516 514.55 -20.3979C511.744 -15.8921 508.94 -11.4545 506.138 -7.10794L506.139 -7.10683ZM515.031 -5.82505C512.136 -6.30651 509.232 -6.73199 506.322 -7.08619C509.121 -11.429 511.922 -15.864 514.728 -20.3665C517.52 -19.9064 520.306 -19.3625 523.085 -18.7429C520.397 -14.3599 517.713 -10.0592 515.032 -5.82394L515.031 -5.82505ZM523.954 -4.15529C521.047 -4.75883 518.131 -5.30701 515.207 -5.79591C517.887 -10.029 520.57 -14.3265 523.255 -18.7057C526.047 -18.0803 528.831 -17.3786 531.607 -16.609C529.053 -12.3882 526.502 -8.24205 523.954 -4.15529ZM532.868 -2.13217C529.962 -2.84372 527.048 -3.50861 524.127 -4.11915C526.674 -8.20267 529.223 -12.3451 531.774 -16.5638C534.554 -15.7891 537.327 -14.9498 540.093 -14.0484C537.682 -10.0189 535.274 -6.04282 532.868 -2.13379L532.868 -2.13217ZM428.22 12.2336C426.417 12.7453 424.611 13.2902 422.804 13.8661C426.862 9.67308 430.926 5.36613 434.993 0.947399C436.553 0.350377 438.112 -0.210108 439.669 -0.742819C435.849 3.68604 432.032 8.01788 428.221 12.2331L428.22 12.2336ZM435.42 10.3491C433.116 10.8987 430.81 11.5039 428.501 12.1548C432.316 7.93207 436.138 3.59223 439.963 -0.845245C442.121 -1.57853 444.275 -2.247 446.427 -2.86205C442.753 1.6485 439.084 6.04951 435.42 10.3491ZM443.464 8.62617C440.872 9.11841 438.276 9.67276 435.677 10.2892C439.343 5.98309 443.016 1.57784 446.693 -2.93808C449.169 -3.64147 451.64 -4.26751 454.108 -4.82055C450.555 -0.235652 447.007 4.24947 443.464 8.62617ZM451.998 7.21645C449.236 7.60662 446.471 8.05889 443.702 8.58144C447.247 4.201 450.797 -0.287354 454.35 -4.87548C457.011 -5.46758 459.667 -5.97466 462.317 -6.40228C458.873 -1.76097 455.433 2.78059 451.998 7.21645ZM460.837 6.1812C457.971 6.44953 455.1 6.78267 452.224 7.18498C455.66 2.74752 459.1 -1.79675 462.545 -6.43968C465.313 -6.88096 468.074 -7.24057 470.83 -7.51302C467.496 -2.8496 464.164 1.7173 460.837 6.1812ZM469.876 5.54424C466.941 5.68428 464 5.88856 461.053 6.1614C464.38 1.6975 467.71 -2.86999 471.044 -7.5345C473.872 -7.81062 476.695 -7.99689 479.512 -8.1069C476.295 -3.46261 473.083 1.09231 469.875 5.54475L469.876 5.54424ZM479.039 5.3114C476.059 5.32447 473.074 5.3952 470.083 5.53509C473.29 1.08316 476.5 -3.47236 479.717 -8.11502C482.586 -8.22499 485.449 -8.25273 488.306 -8.20263C485.213 -3.61274 482.124 0.904658 479.039 5.3114ZM488.265 5.46154C485.263 5.35217 482.253 5.30096 479.238 5.31017C482.322 0.903922 485.409 -3.61134 488.5 -8.20073C491.394 -8.14616 494.282 -8.01101 497.162 -7.80678C494.192 -3.29317 491.227 1.11906 488.265 5.46154ZM497.564 5.97757C494.535 5.75435 491.499 5.58276 488.457 5.46993C491.418 1.12959 494.382 -3.28104 497.351 -7.79141C500.255 -7.58204 503.153 -7.30138 506.044 -6.95325C503.213 -2.56396 500.388 1.74689 497.566 5.97817L497.564 5.97757ZM506.896 6.83141C503.854 6.50245 500.808 6.22027 497.752 5.99182C500.572 1.76429 503.397 -2.54493 506.223 -6.93108C509.135 -6.5774 512.038 -6.15191 514.934 -5.67047C512.251 -1.43467 509.57 2.74002 506.894 6.83192L506.896 6.83141ZM516.26 7.98923C513.208 7.56495 510.147 7.18461 507.079 6.85044C509.753 2.76229 512.431 -1.40867 515.112 -5.64232C518.035 -5.15342 520.952 -4.60635 523.859 -4.0017C521.323 0.0635943 518.791 4.05368 516.26 7.98923ZM525.659 9.42762C522.594 8.9178 519.521 8.44537 516.44 8.01525C518.969 4.08343 521.499 0.0970949 524.034 -3.96498C526.955 -3.35606 529.87 -2.69007 532.777 -1.9779C530.401 1.87971 528.03 5.68613 525.66 9.42712L525.659 9.42762ZM535.074 11.1078C532.004 10.5241 528.925 9.97125 525.836 9.45628C528.203 5.71792 530.573 1.91636 532.945 -1.93701C535.871 -1.21767 538.791 -0.451068 541.702 0.356166C539.49 3.98983 537.281 7.57551 535.074 11.1067L535.074 11.1078ZM544.53 13C541.446 12.3531 538.352 11.7304 535.249 11.1402C537.453 7.61327 539.66 4.03131 541.869 0.403017C544.806 1.21931 547.735 2.07683 550.656 2.96901C548.611 6.36022 546.569 9.6948 544.529 12.9994L544.53 13ZM408.817 27.7045C407.446 28.0876 406.076 28.4839 404.703 28.8959C409.665 24.4291 414.636 19.8228 419.613 15.0661C420.505 14.7619 421.396 14.4675 422.286 14.1802C417.789 18.8198 413.299 23.3253 408.816 27.705L408.817 27.7045ZM415.5 25.9446C413.375 26.4694 411.249 27.0269 409.123 27.6182C413.606 23.2342 418.097 18.7271 422.594 14.0832C424.411 13.4999 426.226 12.952 428.039 12.4346C423.853 17.0619 419.673 21.5659 415.501 25.9452L415.5 25.9446ZM423.383 24.1412C420.849 24.6751 418.313 25.2532 415.773 25.8782C419.948 21.4946 424.129 16.9878 428.318 12.3563C430.636 11.7002 432.949 11.0931 435.26 10.5394C431.293 15.1906 427.335 19.7296 423.382 24.1428L423.383 24.1412ZM431.982 22.495C429.204 22.9747 426.423 23.504 423.64 24.0878C427.593 19.6719 431.553 15.1291 435.519 10.4741C438.124 9.85395 440.725 9.29706 443.323 8.80065C439.537 13.4768 435.756 18.0499 431.983 22.4945L431.982 22.495ZM441.003 21.1059C438.08 21.5018 435.153 21.9505 432.222 22.4531C435.995 18.0085 439.776 13.4343 443.562 8.75704C446.335 8.23134 449.105 7.77702 451.869 7.3842C448.241 12.0682 444.618 16.6448 441.003 21.1059ZM450.303 20.0189C447.284 20.3184 444.26 20.6668 441.231 21.0735C444.846 16.6128 448.468 12.0351 452.094 7.35327C454.973 6.94781 457.848 6.61311 460.716 6.34427C457.239 11.0086 453.768 15.5682 450.303 20.0189ZM459.81 19.241C456.719 19.4404 453.623 19.6932 450.522 19.9976C453.987 15.5469 457.457 10.9861 460.932 6.32288C463.88 6.04953 466.824 5.84261 469.761 5.70155C466.439 10.3108 463.122 14.8323 459.81 19.241ZM469.415 18.7801C466.29 18.8812 463.159 19.0281 460.022 19.2271C463.332 14.8205 466.647 10.3 469.967 5.69291C472.961 5.5526 475.949 5.47973 478.93 5.46726C475.753 10.0048 472.582 14.4311 469.414 18.7806L469.415 18.7801ZM479.134 18.6143C475.969 18.6225 472.797 18.6741 469.619 18.7741C472.785 14.4267 475.954 10.0025 479.129 5.46602C482.145 5.45521 485.156 5.50702 488.159 5.61588C485.146 10.0299 482.138 14.3736 479.134 18.6143ZM488.904 18.7257C485.721 18.6455 482.531 18.6086 479.334 18.6141C482.335 14.3756 485.341 10.0345 488.353 5.62375C491.395 5.73607 494.433 5.90716 497.462 6.13038C494.606 10.4108 491.753 14.604 488.904 18.7257ZM498.751 19.0963C495.542 18.9371 492.324 18.8137 489.099 18.7315C491.946 14.6118 494.796 10.4213 497.651 6.14413C500.708 6.37206 503.756 6.65485 506.798 6.98328C504.113 11.0874 501.43 15.136 498.751 19.0963ZM508.613 19.6976C505.398 19.4673 502.174 19.2678 498.943 19.1052C501.617 15.148 504.298 11.1021 506.981 7.00282C510.049 7.33538 513.11 7.71683 516.162 8.14001C513.643 12.0568 511.126 15.9071 508.613 19.6976ZM518.547 20.5059C515.307 20.2131 512.059 19.9457 508.801 19.7107C511.312 15.9252 513.824 12.0785 516.341 8.16652C519.423 8.59612 522.497 9.06968 525.563 9.579C523.221 13.275 520.882 16.9215 518.547 20.5048L518.547 20.5059ZM528.505 21.4896C525.257 21.1431 522 20.8192 518.734 20.5223C521.066 16.9416 523.403 13.3 525.742 9.60824C528.83 10.1232 531.909 10.6761 534.98 11.2598C532.82 14.7155 530.661 18.1293 528.506 21.4891L528.505 21.4896ZM538.513 22.6234C535.248 22.2332 531.973 21.8602 528.689 21.5086C530.842 18.1525 532.997 14.7431 535.155 11.2922C538.258 11.8824 541.353 12.5045 544.437 13.1514C542.46 16.3516 540.486 19.5028 538.512 22.6223L538.513 22.6234ZM385.375 45.4466C380.371 48.7637 375.374 51.986 370.388 55.1203C381.336 47.2567 392.345 38.8673 403.388 29.8714C397.369 35.2626 391.364 40.4529 385.375 45.4466ZM393.904 41.8496C392.207 42.272 390.511 42.7101 388.814 43.1636L388.79 43.1704L388.769 43.1845C388.017 43.6886 387.267 44.1895 386.516 44.6892C392.479 39.6963 398.459 34.5096 404.452 29.1209C405.836 28.7038 407.219 28.303 408.601 27.9163C403.691 32.7091 398.791 37.3553 393.903 41.8512L393.904 41.8496ZM401.714 40.0083C399.214 40.5646 396.711 41.1526 394.209 41.7727C399.097 37.274 403.997 32.624 408.906 27.8274C411.044 27.231 413.18 26.6673 415.315 26.1379C410.771 30.9037 406.237 35.5219 401.714 40.0072L401.714 40.0083ZM410.46 38.1917C407.638 38.7382 404.817 39.3208 401.994 39.9458C406.515 35.4599 411.048 30.8384 415.59 26.072C418.135 25.4434 420.677 24.8612 423.217 24.3247C418.955 29.0793 414.702 33.7022 410.459 38.1906L410.46 38.1917ZM419.754 36.5243C416.745 37.0217 413.731 37.5609 410.717 38.1422C414.96 33.651 419.213 29.0292 423.474 24.2724C426.262 23.686 429.048 23.1547 431.83 22.6719C427.796 27.4197 423.77 32.0286 419.754 36.5243ZM429.423 35.0622C426.285 35.4938 423.144 35.9656 420 36.4826C424.016 31.9869 428.041 27.3785 432.073 22.6301C435.008 22.1243 437.939 21.6736 440.867 21.2768C437.046 25.9889 433.23 30.5887 429.424 35.0617L429.423 35.0622ZM439.304 33.8341C436.093 34.1917 432.876 34.5896 429.657 35.03C433.463 30.5569 437.276 25.957 441.096 21.2443C444.127 20.8361 447.154 20.485 450.176 20.1846C446.546 24.8467 442.921 29.3965 439.305 33.8336L439.304 33.8341ZM449.374 32.838C446.096 33.1219 442.814 33.4451 439.528 33.8091C443.143 29.3725 446.766 24.8237 450.394 20.1638C453.496 19.8588 456.594 19.605 459.687 19.4046C456.243 23.987 452.805 28.4658 449.374 32.838ZM459.538 32.0741C456.228 32.2855 452.911 32.5334 449.59 32.8198C453.02 28.4477 456.457 23.972 459.899 19.3896C463.037 19.1884 466.17 19.0422 469.298 18.94C466.039 23.4143 462.785 27.7927 459.536 32.0735L459.538 32.0741ZM469.806 31.5254C466.461 31.6697 463.108 31.847 459.75 32.0602C462.996 27.782 466.247 23.4047 469.503 18.933C472.682 18.8314 475.855 18.7793 479.022 18.7706C475.945 23.1132 472.873 27.3588 469.805 31.5243L469.806 31.5254ZM480.159 31.1775C476.784 31.2603 473.401 31.3722 470.012 31.5167C473.076 27.3539 476.146 23.1109 479.221 18.7716C482.42 18.7655 485.611 18.803 488.796 18.8811C485.913 23.052 483.033 27.1663 480.159 31.1775ZM490.544 31.0108C487.158 31.0381 483.763 31.0913 480.361 31.1731C483.232 27.1661 486.11 23.054 488.99 18.8874C492.215 18.9684 495.433 19.0929 498.644 19.2516C495.939 23.2493 493.241 27.1559 490.544 31.0108ZM501.001 31.0026C497.591 30.981 494.171 30.9826 490.743 31.0091C493.438 27.1568 496.134 23.2539 498.835 19.2605C502.067 19.4226 505.292 19.6216 508.509 19.8525C506.003 23.6295 503.5 27.3498 501.001 31.0026ZM511.527 31.1319C508.094 31.0697 504.651 31.0258 501.197 31.004C503.693 27.3538 506.194 23.6384 508.697 19.8645C511.956 20.099 515.205 20.3659 518.447 20.6593C516.137 24.2024 513.831 27.696 511.527 31.1319ZM522.086 31.3736C518.642 31.28 515.187 31.1986 511.721 31.1354C514.022 27.7033 516.326 24.214 518.631 20.6767C521.898 20.9731 525.155 21.2981 528.403 21.6435C526.295 24.9296 524.188 28.1774 522.086 31.3736ZM532.703 31.7023C529.24 31.5841 525.766 31.4753 522.279 31.3787C524.38 28.1874 526.482 24.9443 528.588 21.6637C531.873 22.0147 535.148 22.3878 538.414 22.7774C536.508 25.7895 534.605 28.7628 532.703 31.7023ZM350.506 68.715C346.045 70.8674 341.593 72.9764 337.153 75.0426C346.862 69.5794 356.637 63.8317 366.452 57.7475C361.121 61.5229 355.804 65.1765 350.505 68.7155L350.506 68.715ZM365.753 61.1963C360.977 63.6044 356.209 65.9575 351.452 68.2586C357.115 64.4656 362.797 60.5399 368.497 56.4751C373.772 53.1815 379.061 49.789 384.358 46.2925C378.135 51.4605 371.933 56.4244 365.753 61.1975L365.753 61.1963ZM377.652 56.313C376.249 56.6291 374.846 56.949 373.444 57.2793L373.426 57.2836L373.409 57.2912C371.086 58.4914 368.765 59.6763 366.445 60.847C372.77 55.9509 379.122 50.8537 385.492 45.542C386.61 44.8014 387.729 44.0565 388.847 43.3054C390.457 42.8743 392.066 42.4601 393.676 42.0573C388.319 46.9786 382.977 51.728 377.652 56.3119L377.652 56.313ZM386.796 54.3515C383.851 54.953 380.906 55.5817 377.962 56.2422C383.286 51.655 388.626 46.9034 393.982 41.9799C396.494 41.3541 399.005 40.7637 401.515 40.2044C396.595 45.0781 391.688 49.7907 386.795 54.352L386.796 54.3515ZM396.585 52.4545C393.417 53.0367 390.248 53.6485 387.079 54.294C391.97 49.731 396.877 45.0173 401.797 40.142C404.629 39.5129 407.459 38.9262 410.287 38.3766C405.708 43.2177 401.141 47.9085 396.585 52.4545ZM406.748 50.6906C403.45 51.2305 400.149 51.8009 396.849 52.4062C401.402 47.8585 405.968 43.1682 410.545 38.3271C413.563 37.7427 416.581 37.2025 419.595 36.702C415.303 41.5027 411.02 46.1677 406.748 50.6906ZM417.169 49.0836C413.781 49.5747 410.391 50.0964 406.999 50.6496C411.268 46.1261 415.549 41.4609 419.84 36.6608C422.987 36.1417 426.131 35.6673 429.274 35.2337C425.229 39.984 421.195 44.5915 417.169 49.0836ZM427.775 47.6397C424.323 48.0797 420.867 48.5484 417.41 49.0483C421.433 44.5572 425.466 39.9507 429.508 35.2015C432.732 34.759 435.95 34.3591 439.166 34.0005C435.361 38.6651 431.563 43.2136 427.775 47.6397ZM438.517 46.3574C435.017 46.7484 431.514 47.1648 428.005 47.6106C431.791 43.1866 435.586 38.6407 439.389 33.976C442.678 33.6105 445.964 33.2869 449.245 33.0019C445.662 37.5661 442.086 42.0143 438.517 46.3574ZM449.35 45.2277C445.819 45.5712 442.282 45.9385 438.741 46.3336C442.307 41.992 445.88 37.5464 449.462 32.9843C452.785 32.6974 456.102 32.4491 459.414 32.2371C456.053 36.6644 452.698 41.0019 449.35 45.2277ZM460.257 44.2383C456.701 44.5385 453.138 44.8602 449.571 45.2069C452.915 40.9827 456.267 36.6479 459.625 32.2232C462.985 32.009 466.339 31.8311 469.687 31.6858C466.539 35.9606 463.395 40.1439 460.257 44.2383ZM471.24 43.371C467.659 43.6343 464.069 43.9175 460.474 44.2208C463.608 40.1305 466.749 35.9488 469.893 31.6783C473.283 31.5322 476.666 31.4202 480.042 31.337C477.103 35.4356 474.169 39.4324 471.24 43.371ZM482.292 42.6118C478.687 42.8443 475.073 43.0902 471.452 43.3555C474.379 39.4207 477.309 35.4281 480.246 31.3321C483.649 31.2497 487.045 31.196 490.432 31.1693C487.714 35.0525 485.001 38.8681 482.292 42.6118ZM493.411 41.9382C489.784 42.1444 486.148 42.3633 482.502 42.5972C485.207 38.8578 487.917 35.0465 490.632 31.1676C494.06 31.1406 497.482 31.1396 500.893 31.1606C498.396 34.8102 495.902 38.4096 493.411 41.9382ZM504.595 41.3328C500.947 41.5208 497.287 41.7182 493.618 41.9263C496.105 38.4025 498.596 34.8068 501.09 31.1615C504.545 31.1829 507.989 31.2279 511.424 31.289C509.145 34.6869 506.869 38.0379 504.596 41.3323L504.595 41.3328ZM515.824 40.7763C512.162 40.9519 508.488 41.1319 504.8 41.3219C507.07 38.0302 509.343 34.6862 511.617 31.2931C515.083 31.3563 518.538 31.4366 521.981 31.5301C519.926 34.6509 517.873 37.74 515.824 40.7763ZM527.121 40.2427C523.437 40.4149 519.74 40.5877 516.028 40.766C518.074 37.7339 520.124 34.6501 522.175 31.5353C525.662 31.6303 529.139 31.7408 532.602 31.8574C530.774 34.6825 528.946 37.4847 527.121 40.2427ZM319.484 84.5605C315.461 85.9001 311.45 87.2281 307.451 88.5477C316.188 84.7479 324.988 80.8213 333.836 76.7374C329.036 79.411 324.249 82.0179 319.484 84.5605ZM333.083 80C328.805 81.446 324.538 82.8765 320.282 84.2953C325.349 81.5861 330.438 78.8056 335.545 75.947C340.234 73.7736 344.936 71.5553 349.647 69.2882C344.105 72.9793 338.583 76.5471 333.084 80.0011L333.083 80ZM346.786 75.3238C342.404 76.8347 338.029 78.3267 333.666 79.8037C339.284 76.2701 344.925 72.6166 350.588 68.8355C355.434 66.4975 360.291 64.1062 365.158 61.658C359.009 66.3955 352.885 70.9471 346.786 75.3249L346.786 75.3238ZM359.963 71.0105C359.332 71.1387 358.702 71.2668 358.071 71.3949L358.062 71.3963L358.052 71.4009C354.451 72.6667 350.856 73.918 347.264 75.158C353.432 70.723 359.629 66.1115 365.849 61.308C368.384 60.0291 370.921 58.736 373.461 57.4256C374.778 57.1155 376.096 56.8146 377.413 56.5176C371.575 61.5391 365.756 66.3653 359.963 71.0105ZM370.638 68.9221C367.183 69.5754 363.729 70.2494 360.278 70.9465C366.07 66.299 371.887 61.4711 377.725 56.4474C380.679 55.7835 383.635 55.1485 386.591 54.5446C381.255 59.5141 375.937 64.3035 370.639 68.9227L370.638 68.9221ZM381.632 66.9155C378.063 67.5443 374.495 68.1945 370.928 68.8681C376.224 64.2483 381.54 59.4572 386.872 54.4866C390.05 53.8386 393.226 53.2233 396.402 52.639C391.462 57.5651 386.538 62.3175 381.631 66.916L381.632 66.9155ZM392.834 65.004C389.191 65.6053 385.548 66.2252 381.904 66.867C386.809 62.2684 391.729 57.5152 396.665 52.5896C399.97 51.9834 403.275 51.4099 406.578 50.8691C401.984 55.732 397.401 60.4458 392.834 65.004ZM404.179 63.1931C400.485 63.7639 396.79 64.3516 393.094 64.961C397.658 60.4033 402.237 55.6895 406.83 50.8275C410.226 50.2723 413.621 49.7497 417.014 49.2565C412.725 54.0398 408.445 58.6913 404.18 63.1926L404.179 63.1931ZM415.631 61.4764C411.899 62.0192 408.165 62.5777 404.429 63.1548C408.692 58.6545 412.967 54.0023 417.254 49.2217C420.716 48.7209 424.175 48.2507 427.63 47.8092C423.621 52.4907 419.62 57.0535 415.631 61.4764ZM427.167 59.8463C423.406 60.3636 419.642 60.8945 415.873 61.4421C419.859 57.0219 423.856 52.4595 427.861 47.7812C431.372 47.3344 434.878 46.9164 438.381 46.5256C434.634 51.0829 430.895 55.5242 427.167 59.8463ZM438.775 58.289C434.989 58.7843 431.197 59.2929 427.401 59.814C431.127 55.494 434.862 51.0548 438.606 46.499C442.148 46.1045 445.686 45.7366 449.218 45.3926C445.73 49.794 442.248 54.0984 438.774 58.2895L438.775 58.289ZM450.447 56.7949C446.638 57.2736 442.824 57.7603 439.004 58.2604C442.475 54.0708 445.954 49.7701 449.44 45.3714C453.01 45.0247 456.575 44.7031 460.133 44.4024C456.898 48.6204 453.669 52.7649 450.448 56.7955L450.447 56.7949ZM462.179 55.3481C458.351 55.813 454.514 56.2859 450.671 56.7683C453.889 52.7392 457.116 48.5996 460.347 44.3848C463.945 44.0805 467.536 43.7979 471.119 43.5336C468.135 47.5457 465.153 51.5005 462.178 55.3486L462.179 55.3481ZM473.973 53.9322C470.125 54.3888 466.269 54.8507 462.402 55.3209C465.373 51.476 468.351 47.5259 471.333 43.5175C474.956 43.2512 478.571 43.0048 482.177 42.7718C479.438 46.5544 476.702 50.2906 473.973 53.9322ZM485.827 52.5329C481.961 52.9873 478.082 53.4446 474.193 53.9065C476.919 50.2687 479.65 46.5377 482.386 42.7589C486.033 42.5245 489.671 42.3061 493.299 42.0994C490.804 45.6323 488.314 49.1205 485.827 52.5345L485.827 52.5329ZM497.743 51.1307C495.055 51.4485 492.362 51.7645 489.661 52.0813L486.044 52.5072C488.527 49.099 491.015 45.6134 493.506 42.0864C497.177 41.8773 500.838 41.6805 504.486 41.4925C502.235 44.7542 499.987 47.9675 497.742 51.1313L497.743 51.1307ZM509.727 49.7084C505.819 50.1762 501.897 50.6414 497.96 51.105C500.201 47.946 502.444 44.7375 504.691 41.4805C508.379 41.2905 512.053 41.1105 515.715 40.9338C513.717 43.8932 511.72 46.8275 509.726 49.7073L509.727 49.7084ZM521.785 48.2437C517.854 48.7288 513.907 49.2068 509.943 49.6815C511.933 46.8065 513.926 43.8775 515.919 40.9246C519.631 40.7462 523.329 40.5741 527.013 40.4019C525.269 43.0371 523.525 45.6706 521.784 48.2442L521.785 48.2437ZM291.442 95.2531C287.777 96.0082 284.121 96.775 280.478 97.5559C282.723 96.8189 284.972 96.0815 287.228 95.3426C292.96 93.4632 298.723 91.5738 304.51 89.6678C300.138 91.5594 295.782 93.4194 291.443 95.2542L291.442 95.2531ZM303.763 92.7642C299.882 93.5309 296.015 94.3127 292.157 95.1053C296.753 93.1603 301.372 91.1839 306.008 89.173C310.234 87.78 314.475 86.3776 318.727 84.9624C313.717 87.6287 308.729 90.228 303.763 92.7631L303.763 92.7642ZM316.064 90.3876C312.124 91.136 308.19 91.8923 304.267 92.6658C309.334 90.075 314.424 87.4201 319.535 84.6937C323.867 83.2511 328.211 81.7963 332.564 80.3249C327.039 83.7895 321.539 87.1408 316.064 90.3876ZM328.393 88.0845C324.411 88.8141 320.439 89.5582 316.474 90.3097C322.006 87.026 327.564 83.6345 333.147 80.1287C337.55 78.6403 341.963 77.1364 346.384 75.6127C340.358 79.9327 334.359 84.085 328.393 88.0845ZM340.716 85.8642C336.72 86.5748 332.729 87.2899 328.748 88.0195C334.756 83.9892 340.795 79.8022 346.862 75.4469C350.595 74.1596 354.333 72.8589 358.076 71.543C358.622 71.4307 359.168 71.32 359.714 71.2089C353.352 76.3057 347.018 81.184 340.717 85.8637L340.716 85.8642ZM353.07 83.6951C349.055 84.3908 345.044 85.095 341.038 85.8063C347.336 81.1255 353.668 76.2438 360.028 71.1453C363.489 70.4453 366.953 69.7677 370.418 69.1126C364.61 74.1711 358.828 79.0274 353.07 83.6951ZM365.444 81.579C361.417 82.2613 357.391 82.9469 353.37 83.642C359.123 78.9736 364.904 74.1156 370.708 69.0576C374.281 68.3824 377.856 67.7303 381.433 67.099C376.084 72.1095 370.752 76.9334 365.444 81.579ZM377.838 79.498C373.799 80.1706 369.76 80.8487 365.725 81.5319C371.031 76.8862 376.358 72.0616 381.706 67.0516C385.354 66.4078 389.003 65.7865 392.651 65.1842C387.696 70.1266 382.758 74.8934 377.838 79.498ZM390.26 77.4441C386.209 78.1103 382.158 78.7793 378.108 79.4532C383.024 74.849 387.96 70.0833 392.911 65.1413C396.612 64.5309 400.311 63.9417 404.009 63.37C399.411 68.2186 394.827 72.9061 390.259 77.4446L390.26 77.4441ZM402.7 75.406C398.641 76.0693 394.581 76.733 390.519 77.4017C395.085 72.8631 399.665 68.1798 404.261 63.3311C407.999 62.7531 411.738 62.1936 415.473 61.6508C411.202 66.3828 406.945 70.957 402.699 75.4076L402.7 75.406ZM415.186 73.3683L412.787 73.7604C409.511 74.295 406.233 74.8284 402.953 75.3651C407.195 70.9159 411.448 66.3449 415.716 61.6144C419.488 61.0669 423.255 60.5345 427.019 60.0173C423.064 64.599 419.119 69.0408 415.187 73.3694L415.186 73.3683ZM427.708 71.3237C423.622 71.9926 419.53 72.6603 415.434 73.3283C419.364 69.0023 423.303 64.5631 427.256 59.984C431.054 59.4619 434.847 58.9538 438.635 58.4576C434.984 62.8597 431.341 67.1442 427.708 71.3237ZM440.249 69.2621C436.156 69.9385 432.056 70.6113 427.949 71.2845C431.578 67.1082 435.218 62.8279 438.865 58.4273C442.688 57.9273 446.504 57.4396 450.314 56.9615C446.951 61.1661 443.598 65.2536 440.251 69.2616L440.249 69.2621ZM452.842 67.1678C448.733 67.8568 444.615 68.5416 440.487 69.2228C443.83 65.218 447.18 61.1347 450.539 56.9338C454.383 56.4519 458.221 55.9786 462.05 55.5131C458.974 59.4911 455.905 63.3581 452.841 67.1683L452.842 67.1678ZM465.489 65.0267C461.362 65.7331 457.226 66.4332 453.078 67.1291C456.138 63.3236 459.203 59.4598 462.275 55.4866C466.143 55.0169 470 54.5546 473.849 54.0979C471.057 57.8204 468.27 61.4469 465.489 65.0267ZM478.195 62.8253C474.05 63.5535 469.893 64.2736 465.724 64.9863C468.502 61.4107 471.284 57.7889 474.072 54.0707C477.96 53.6088 481.839 53.1515 485.707 52.6966C483.199 56.1362 480.696 59.5012 478.196 62.8248L478.195 62.8253ZM490.965 60.5479C486.801 61.3022 482.62 62.0478 478.427 62.7848C480.923 59.4659 483.421 56.1068 485.925 52.672L489.633 52.2365C492.304 51.9225 494.966 51.6099 497.624 51.2967C495.401 54.4289 493.18 57.5115 490.964 60.5495L490.965 60.5479ZM503.78 58.1836C499.602 58.9685 495.408 59.7431 491.197 60.5057C493.409 57.4736 495.625 54.3957 497.843 51.2699C501.781 50.8058 505.705 50.3412 509.612 49.8734C507.665 52.6832 505.723 55.4467 503.78 58.1836ZM516.666 55.7107C512.468 56.5343 508.248 57.3424 504.009 58.1402C505.947 55.407 507.888 52.651 509.83 49.846C513.795 49.3707 517.742 48.8927 521.674 48.4071C520.003 50.876 518.334 53.2941 516.667 55.7091L516.666 55.7107ZM533.816 46.8812C532.422 48.9857 531.031 51.0378 529.639 53.1052C525.414 53.9749 521.166 54.828 516.895 55.6662C518.559 53.2555 520.223 50.8449 521.89 48.3819C525.884 47.889 529.86 47.3901 533.816 46.8812ZM538.393 39.8662C536.904 42.1591 535.414 44.4673 533.927 46.7151C529.972 47.2245 525.997 47.7234 522.004 48.2158C523.741 45.647 525.48 43.0193 527.22 40.3901L528.35 40.3375C531.711 40.1806 535.059 40.0244 538.394 39.8657L538.393 39.8662ZM543.299 32.246C541.697 34.7596 540.096 37.246 538.496 39.7079C535.141 39.8672 531.776 40.025 528.396 40.1824L527.325 40.2324C529.146 37.4802 530.969 34.6828 532.794 31.863C536.309 31.9829 539.811 32.1127 543.298 32.2454L543.299 32.246ZM548.498 24.0332C546.796 26.7587 545.096 29.4232 543.397 32.0914C539.909 31.9577 536.408 31.8289 532.894 31.7085C534.793 28.7749 536.694 25.8064 538.595 22.8002C541.907 23.1968 545.208 23.6089 548.498 24.0332ZM553.924 15.2225C552.146 18.1333 550.368 21.0359 548.593 23.8808C545.304 23.4565 542.004 23.0439 538.694 22.6478C540.663 19.5325 542.635 16.3867 544.609 13.1919C547.724 13.8464 550.83 14.5251 553.925 15.2236L553.924 15.2225ZM517.224 -72.9984C515.412 -72.0389 513.59 -70.9531 511.758 -69.7339L511.733 -69.7172L511.72 -69.6952C509.821 -66.564 507.923 -63.4694 506.026 -60.4145C502.838 -59.1342 499.628 -57.5528 496.391 -55.6224L496.363 -55.6053L496.348 -55.5823C494.152 -52.1851 491.957 -48.8489 489.764 -45.5438C486.866 -44.4124 483.952 -43.0769 481.023 -41.5104L480.993 -41.4939L480.976 -41.4699C478.436 -37.8103 475.897 -34.2238 473.36 -30.6836C470.801 -29.7225 468.234 -28.634 465.655 -27.3984L465.623 -27.3837L465.605 -27.358C462.656 -23.4398 459.708 -19.6001 456.763 -15.8258C454.609 -15.0531 452.452 -14.2128 450.288 -13.2854L450.256 -13.2706L450.235 -13.2462C446.772 -9.05356 443.312 -4.96455 439.856 -0.954571C438.213 -0.395718 436.568 0.197477 434.921 0.827722L434.887 0.840289L434.866 0.863608C430.738 5.34752 426.615 9.71533 422.498 13.9665C421.516 14.2825 420.534 14.6051 419.552 14.9402L419.52 14.9506L419.496 14.9723C414.446 19.7987 409.402 24.4708 404.366 28.9997C404.304 29.0184 404.243 29.0355 404.182 29.0543L404.154 29.0632L404.131 29.0816C392.168 38.8588 380.246 47.9213 368.395 56.3731C357.36 63.2601 346.381 69.7211 335.48 75.8227C325.577 80.4129 315.733 84.8036 305.969 89.0381C299.681 91.1103 293.425 93.1616 287.204 95.2021C284.52 96.0822 281.846 96.9593 279.177 97.8344C156.332 124.323 47.272 166.807 0.797227 268.781L0.893218 268.99C47.1079 167.344 155.529 124.79 277.828 98.2772C156.789 138.016 50.6384 174.999 4.39011 276.619L4.48508 276.826C50.8192 174.774 157.578 137.893 279.179 97.9835C283.023 97.155 286.881 96.3461 290.75 95.5474C273.555 102.809 256.649 109.652 240.152 116.33C136.617 158.242 49.242 193.626 7.98341 284.461L8.08041 284.672C49.2698 193.769 136.647 158.383 240.198 116.465C256.908 109.701 274.039 102.767 291.464 95.4012C295.396 94.5913 299.335 93.791 303.289 93.0098C273.275 108.323 244.109 121.4 216.401 133.823C124.999 174.804 49.4526 208.676 11.5682 292.281L11.6662 292.495C49.4919 208.817 125.038 174.941 216.458 133.953C244.305 121.469 273.622 108.324 303.795 92.9104C307.751 92.1297 311.718 91.3663 315.693 90.6103C276.332 113.93 238.384 131.936 203.145 148.656C119.417 188.381 50.9779 220.861 15.1616 300.12L15.2575 300.329C51.0212 220.996 119.462 188.517 203.207 148.785C238.551 132.016 276.619 113.953 316.107 90.5331C320.093 89.7758 324.085 89.0279 328.088 88.2941C281.304 119.62 236.457 141.603 195.6 161.629C117.04 200.134 53.2332 231.422 18.7534 307.956L18.8499 308.166C53.282 231.555 117.09 200.268 195.666 161.755C236.608 141.688 281.557 119.655 328.446 88.2292C332.44 87.4962 336.445 86.7788 340.453 86.0653C287.462 125.382 236.881 150.636 191.536 173.268C116.589 210.676 55.9456 240.958 22.3427 315.786L22.4398 315.998C55.9973 241.091 116.641 210.809 191.604 173.392C237.022 150.723 287.692 125.426 340.775 86.0074C344.791 85.2942 348.812 84.5866 352.838 83.889C294.442 131.197 238.886 159.183 189.759 183.923C117.388 220.369 58.9649 249.803 25.9304 323.616L26.0279 323.828C59.0193 249.936 117.442 220.501 189.829 184.048C239.021 159.274 294.657 131.249 353.137 83.8375C357.167 83.1395 361.2 82.4519 365.236 81.7682C302.004 137.06 242.008 167.359 189.573 193.835C119.052 229.442 62.204 258.158 29.5197 331.446L29.6172 331.659C62.2601 258.289 119.107 229.574 189.641 193.959C242.136 167.454 302.206 137.116 365.515 81.7205C369.556 81.0365 373.598 80.3579 377.643 79.6838C309.995 142.949 245.947 175.239 190.536 203.168C121.338 238.044 65.6038 266.148 33.1085 339.275L33.2061 339.488C65.6622 266.278 121.394 238.175 190.604 203.292C246.072 175.336 310.191 143.009 377.912 79.6379C381.969 78.9626 386.025 78.2927 390.082 77.625C318.326 148.866 250.515 182.88 192.359 212.044C124.089 246.28 69.1263 273.856 36.6969 347.103L36.7949 347.317C69.1852 273.987 124.146 246.412 192.429 212.169C250.636 182.978 318.517 148.929 390.341 77.5826C394.405 76.9141 398.469 76.2487 402.532 75.5851C326.918 154.79 255.564 190.328 194.847 220.553C127.197 254.229 72.7452 281.348 40.2862 354.933L40.3842 355.147C72.8057 281.477 127.254 254.36 194.915 220.678C255.684 190.425 327.104 154.857 402.784 75.543C406.116 74.9987 409.445 74.4555 412.772 73.9133L415.027 73.546C335.737 160.734 261.008 197.608 197.854 228.762C130.585 261.944 76.4419 288.664 43.8767 362.763L43.9747 362.977C76.5025 288.793 130.642 262.075 197.921 228.888C261.128 197.71 335.92 160.805 415.275 73.506C419.375 72.8375 423.47 72.1695 427.56 71.5001C344.741 166.69 266.77 204.752 201.277 236.722C134.194 269.467 80.1985 295.837 47.466 370.593L47.5645 370.808C80.2613 295.965 134.252 269.598 201.343 236.849C266.886 204.854 344.919 166.76 427.802 71.4604C431.91 70.7878 436.013 70.1139 440.108 69.4382C353.888 172.63 272.788 211.782 205.038 244.475C137.987 276.83 84.0069 302.891 51.0564 378.423L51.155 378.638C84.0696 303.019 138.045 276.96 205.103 244.602C272.901 211.885 354.064 172.702 440.347 69.3984C444.476 68.7167 448.594 68.0313 452.706 67.3425C363.175 178.572 279.029 218.709 209.079 252.051C141.929 284.059 87.8586 309.846 54.6463 386.255L54.7448 386.47C87.9209 309.973 141.985 284.19 209.142 252.179C279.14 218.814 363.351 178.647 452.943 67.3037C457.091 66.6079 461.23 65.9079 465.358 65.2021C372.591 184.517 285.458 225.547 213.352 259.479C145.995 291.176 91.7447 316.717 58.2361 394.086L58.3346 394.301C91.808 316.843 146.051 291.307 213.413 259.607C285.567 225.652 372.764 184.594 465.592 65.1621C469.762 64.449 473.921 63.7278 478.067 63.0008C382.12 190.462 292.052 232.307 217.82 266.777C150.167 298.194 95.6605 323.515 61.8254 401.916L61.924 402.131C95.7235 323.641 150.222 298.324 217.88 266.905C292.159 232.412 382.291 190.539 478.298 62.9591C482.493 62.2227 486.673 61.4771 490.839 60.7234C391.754 196.402 298.788 238.995 222.455 273.963C154.426 305.127 99.6023 330.249 65.4137 409.747L65.5122 409.962C99.6652 330.375 154.481 305.257 222.514 274.091C298.895 239.102 391.926 196.48 491.07 60.6818C495.284 59.9182 499.482 59.1442 503.661 58.3588C401.477 202.316 305.645 245.624 227.231 281.051C158.76 311.986 103.562 336.93 69.0003 417.577L69.0988 417.792C103.626 337.054 158.815 312.116 227.289 281.18C305.751 245.732 401.647 202.392 503.886 58.3147C508.125 57.5181 512.346 56.7083 516.545 55.8853C411.296 208.208 312.617 252.199 232.134 288.054C163.164 318.78 107.547 343.561 72.5896 425.407L72.6881 425.622C107.61 343.686 163.218 318.911 232.19 288.184C312.721 252.306 411.465 208.287 516.774 55.8408C521.045 55.0026 525.295 54.1501 529.52 53.2804C421.213 214.09 319.695 258.721 237.145 294.982C167.625 325.519 111.548 350.151 76.1794 433.239L76.279 433.456C111.613 350.278 167.679 325.649 237.199 295.112C319.798 258.83 421.381 214.169 529.749 53.2332C543.734 50.3559 557.461 47.2961 570.849 43.9868L570.787 43.8505C557.455 47.1458 543.79 50.1918 529.866 53.0591C531.254 50.9975 532.64 48.9529 534.03 46.8543C546.171 45.2913 558.125 43.6354 569.846 41.7985L569.782 41.6589C558.117 43.4862 546.221 45.133 534.141 46.6892C535.623 44.4479 537.109 42.1455 538.594 39.8584C548.603 39.3816 558.491 38.8834 568.234 38.2828L568.166 38.1344C558.478 38.7312 548.648 39.2269 538.697 39.7013C540.293 37.2442 541.889 34.7642 543.488 32.2559C546.563 32.3736 549.625 32.4931 552.678 32.6129C557.099 32.7866 561.497 32.9589 565.868 33.1206L565.794 32.96C561.47 32.7998 557.119 32.6289 552.746 32.4573C549.704 32.3379 546.651 32.2182 543.587 32.1008C545.282 29.4384 546.979 26.7783 548.678 24.0592C553.331 24.659 557.96 25.2832 562.564 25.9103L562.483 25.7331C557.937 25.1127 553.366 24.4992 548.773 23.9057C550.545 21.0662 552.32 18.1689 554.095 15.2635C555.433 15.5659 556.77 15.8716 558.104 16.181L558.015 15.9849C556.741 15.6905 555.466 15.3994 554.189 15.1105C554.84 14.0453 555.49 12.9746 556.141 11.8985L556.057 11.7146C555.378 12.84 554.697 13.9593 554.017 15.0711C550.922 14.373 547.815 13.6932 544.7 13.0387C546.737 9.73842 548.777 6.4087 550.819 3.02174C551.306 3.17006 551.792 3.32112 552.279 3.47216L552.181 3.25833C551.758 3.12787 551.335 2.99691 550.911 2.86807L551.531 1.84008L551.446 1.65616L550.747 2.81746C547.826 1.92528 544.897 1.06888 541.96 0.252603C543.632 -2.49567 545.306 -5.27555 546.981 -8.08431L546.897 -8.26824C545.194 -5.41342 543.493 -2.58749 541.794 0.205216C538.883 -0.603115 535.963 -1.36973 533.037 -2.08796C535.44 -5.99324 537.847 -9.96557 540.255 -13.9913C541.845 -13.4717 543.432 -12.9321 545.016 -12.3739L544.913 -12.5999C543.394 -13.1331 541.872 -13.6504 540.349 -14.1482C541.074 -15.3616 541.801 -16.581 542.526 -17.8064L542.441 -17.9915C541.689 -16.7216 540.938 -15.4572 540.185 -14.2004C537.42 -15.1023 534.647 -15.9417 531.867 -16.7147C533.968 -20.1893 536.071 -23.7238 538.176 -27.2965L538.091 -27.4815C535.96 -23.8617 533.829 -20.28 531.701 -16.761C528.925 -17.5306 526.143 -18.2327 523.351 -18.8571C526.037 -23.2363 528.723 -27.6805 531.413 -32.2102C533.159 -31.7265 534.903 -31.1998 536.644 -30.6382L536.544 -30.8565C534.868 -31.3953 533.188 -31.9003 531.504 -32.3661C532.319 -33.7398 533.135 -35.1223 533.951 -36.514L533.866 -36.699C533.023 -35.2612 532.181 -33.8322 531.337 -32.413C528.664 -33.1492 525.981 -33.7859 523.292 -34.3257C525.483 -37.9633 527.677 -41.6668 529.871 -45.4135L529.786 -45.5996C527.562 -41.8021 525.339 -38.0476 523.118 -34.3602C520.43 -34.895 517.735 -35.3302 515.029 -35.6494C517.857 -40.2615 520.687 -44.9712 523.52 -49.7506C525.085 -49.567 526.648 -49.3299 528.205 -49.0477L528.119 -49.2361C526.62 -49.5049 525.118 -49.7307 523.611 -49.9076C524.398 -51.2364 525.186 -52.5722 525.974 -53.9152L525.889 -54.1013C525.068 -52.7032 524.248 -51.3111 523.429 -49.9271C520.768 -50.2345 518.095 -50.3933 515.412 -50.4034C517.705 -54.1938 519.999 -58.041 522.296 -61.9404L522.211 -62.1255C519.878 -58.1628 517.549 -54.2551 515.22 -50.4053C512.521 -50.4072 509.81 -50.2479 507.087 -49.9236C509.769 -54.2462 512.452 -58.6391 515.137 -63.1052C517.2 -63.5643 519.255 -63.8975 521.301 -64.1099L521.233 -64.2584C519.246 -64.0474 517.249 -63.7248 515.244 -63.2829C516.457 -65.3004 517.67 -67.3354 518.883 -69.3851L518.798 -69.5702C517.537 -67.4396 516.277 -65.3253 515.018 -63.2302C512.126 -62.5806 509.216 -61.6822 506.287 -60.5207C508.152 -63.5236 510.018 -66.567 511.885 -69.6446C513.696 -70.8487 515.496 -71.9221 517.287 -72.8703L517.227 -72.9999L517.224 -72.9984Z" fill="url(#paint0_linear_343_8334)"/>
    <defs>
    <linearGradient id="paint0_linear_343_8334" x1="208" y1="235" x2="54.5" y2="345" gradientUnits="userSpaceOnUse">
    <stop stop-color="#B1924E"/>
    <stop offset="1" stop-color="#B1924E" stop-opacity="0"/>
    </linearGradient>
    </defs>
</svg>
