<svg width="21" height="30" viewBox="0 0 21 30" fill="none" xmlns="http://www.w3.org/2000/svg">
<g clip-path="url(#clip0_326_29)">
<path d="M6.30153 12.8662C6.30153 11.1396 4.89431 9.74609 3.15077 9.74609C1.40722 9.74609 0 11.1396 0 12.8662C0 14.5927 1.40722 15.9862 3.15077 15.9862C4.89431 15.9862 6.30153 14.5927 6.30153 12.8662ZM1.77009 12.8662C1.77009 12.1124 2.38963 11.4989 3.15077 11.4989C3.91191 11.4989 4.53144 12.1124 4.53144 12.8662C4.53144 13.6199 3.91191 14.2334 3.15077 14.2334C2.38963 14.2334 1.77009 13.6199 1.77009 12.8662Z" fill="#0C345C"/>
<path d="M17.143 9.74609C15.3994 9.74609 13.9922 11.1396 13.9922 12.8662C13.9922 14.5927 15.3994 15.9862 17.143 15.9862C18.8865 15.9862 20.2937 14.5927 20.2937 12.8662C20.2937 11.1396 18.8865 9.74609 17.143 9.74609ZM17.143 14.2334C16.3818 14.2334 15.7623 13.6199 15.7623 12.8662C15.7623 12.1124 16.3818 11.4989 17.143 11.4989C17.9041 11.4989 18.5236 12.1124 18.5236 12.8662C18.5236 13.6199 17.9041 14.2334 17.143 14.2334Z" fill="#0C345C"/>
<path d="M7.26614 8.67673V15.9861H9.03623V8.67673H10.9479V15.9861H12.718V8.67673H18.0283V7.8003C18.0283 7.51108 18.0106 7.22186 17.9752 6.94141H2.31873C2.28333 7.22186 2.26562 7.51108 2.26562 7.8003V8.67673H7.25729H7.26614Z" fill="#0C345C"/>
<path d="M2.26562 17.2393V18.1157C2.26562 22.1297 5.32789 25.4338 9.25749 25.8633V28.2471H7.92992C6.95637 28.2471 6.15983 29.0359 6.15983 30H14.1252C14.1252 29.0359 13.3287 28.2471 12.3552 28.2471H11.0276V25.8633C14.966 25.4251 18.0195 22.1297 18.0195 18.1157V17.2393H2.26562Z" fill="#0C345C"/>
<path d="M15.6826 5.18843H17.5678C16.4791 2.16477 13.5673 0 10.1511 0C6.72594 0 3.81413 2.16477 2.73438 5.18843H15.6826Z" fill="#0C345C"/>
</g>
<defs>
<clipPath id="clip0_326_29">
<rect width="20.2941" height="30" fill="white"/>
</clipPath>
</defs>
</svg>
