<svg width="81" height="110" viewBox="0 0 81 110" fill="none" xmlns="http://www.w3.org/2000/svg">
<path fill-rule="evenodd" clip-rule="evenodd" d="M43.9472 54.6863C50.6642 70.2367 56.0021 87.607 48.4628 102.776C40.1072 119.587 23.4463 132.392 4.71326 133.624C-13.2739 134.808 -27.1338 121.039 -40.1897 108.61C-53.8975 95.56 -70.7101 82.0394 -69.2982 63.1661C-67.8491 43.7948 -51.1812 29.1006 -33.6205 20.796C-18.4075 13.6016 -1.14036 16.9033 14.2804 23.6408C28.0801 29.6701 37.9755 40.8615 43.9472 54.6863Z" fill="white"/>
<path fill-rule="evenodd" clip-rule="evenodd" d="M45.499 41.0051C52.3876 41.2064 56.2454 48.3605 61.6671 52.6314C68.5092 58.0212 79.5934 60.2255 80.8633 68.863C82.1618 77.6957 73.9523 84.8285 67.266 90.7155C61.1046 96.1404 53.6943 100.022 45.499 99.9999C37.3248 99.978 29.3581 96.6607 23.8479 90.5991C18.5571 84.7788 16.2876 76.6899 17.1947 68.863C18.014 61.7949 23.3 56.6396 28.3613 51.6581C33.349 46.749 38.5172 40.8011 45.499 41.0051Z" fill="#F8AD9D"/>
</svg>
