<svg width="115" height="91" viewBox="0 0 115 91" fill="none" xmlns="http://www.w3.org/2000/svg">
<path fill-rule="evenodd" clip-rule="evenodd" d="M77.0883 -14.6902C89.9468 -12.9919 99.3409 -4.41721 108.631 4.64721C120.65 16.3747 139.661 26.9239 136.689 43.4639C133.686 60.1728 112.569 64.6264 96.754 70.738C83.1695 75.9877 68.2994 81.7018 55.4397 74.8621C42.9706 68.2302 40.8639 52.6069 37.0616 38.9895C32.8644 23.9576 23.7214 7.17038 33.0467 -5.33574C42.494 -18.0055 61.435 -16.7577 77.0883 -14.6902Z" fill="#FFD886"/>
<path fill-rule="evenodd" clip-rule="evenodd" d="M33.7103 15.2224C43.3767 7.87921 58.1237 8.6626 68.3465 15.2716C77.6017 21.2551 78.4346 33.7496 79.364 44.7373C80.0854 53.2664 79.0841 62.4216 72.825 68.2209C67.3171 73.3242 58.9769 69.5143 51.5356 70.5214C41.141 71.9282 29.2979 82.6644 21.9799 75.1024C14.7413 67.6222 25.8452 56.2435 27.8441 46.0396C29.9591 35.2434 24.9709 21.8614 33.7103 15.2224Z" fill="white"/>
</svg>
