<svg width="46" height="47" viewBox="0 0 46 47" fill="none" xmlns="http://www.w3.org/2000/svg">
<path d="M18.065 17.5575L21.5 14.1075V28.4925C21.5 28.8903 21.658 29.2719 21.9393 29.5532C22.2206 29.8345 22.6022 29.9925 23 29.9925C23.3978 29.9925 23.7794 29.8345 24.0607 29.5532C24.342 29.2719 24.5 28.8903 24.5 28.4925V14.1075L27.935 17.5575C28.0744 17.6981 28.2403 17.8097 28.4231 17.8859C28.6059 17.962 28.802 18.0012 29 18.0012C29.198 18.0012 29.3941 17.962 29.5769 17.8859C29.7597 17.8097 29.9256 17.6981 30.065 17.5575C30.2056 17.4181 30.3172 17.2522 30.3933 17.0694C30.4695 16.8866 30.5087 16.6905 30.5087 16.4925C30.5087 16.2945 30.4695 16.0984 30.3933 15.9157C30.3172 15.7329 30.2056 15.567 30.065 15.4275L24.065 9.42752C23.9223 9.29096 23.7541 9.18391 23.57 9.11252C23.2048 8.96249 22.7952 8.96249 22.43 9.11252C22.2459 9.18391 22.0777 9.29096 21.935 9.42752L15.935 15.4275C15.7951 15.5674 15.6842 15.7334 15.6085 15.9161C15.5328 16.0989 15.4939 16.2947 15.4939 16.4925C15.4939 16.6903 15.5328 16.8862 15.6085 17.0689C15.6842 17.2516 15.7951 17.4177 15.935 17.5575C16.0749 17.6974 16.2409 17.8083 16.4236 17.884C16.6064 17.9597 16.8022 17.9987 17 17.9987C17.1978 17.9987 17.3936 17.9597 17.5764 17.884C17.7591 17.8083 17.9251 17.6974 18.065 17.5575ZM36.5 23.9925C36.1022 23.9925 35.7206 24.1506 35.4393 24.4319C35.158 24.7132 35 25.0947 35 25.4925V34.4925C35 34.8903 34.842 35.2719 34.5607 35.5532C34.2794 35.8345 33.8978 35.9925 33.5 35.9925H12.5C12.1022 35.9925 11.7206 35.8345 11.4393 35.5532C11.158 35.2719 11 34.8903 11 34.4925V25.4925C11 25.0947 10.842 24.7132 10.5607 24.4319C10.2794 24.1506 9.89782 23.9925 9.5 23.9925C9.10218 23.9925 8.72064 24.1506 8.43934 24.4319C8.15804 24.7132 8 25.0947 8 25.4925V34.4925C8 35.686 8.47411 36.8306 9.31802 37.6745C10.1619 38.5184 11.3065 38.9925 12.5 38.9925H33.5C34.6935 38.9925 35.8381 38.5184 36.682 37.6745C37.5259 36.8306 38 35.686 38 34.4925V25.4925C38 25.0947 37.842 24.7132 37.5607 24.4319C37.2794 24.1506 36.8978 23.9925 36.5 23.9925Z" fill="#FFD886"/>
</svg>
