<svg width="42" height="43" viewBox="0 0 42 43" fill="none" xmlns="http://www.w3.org/2000/svg">
<rect y="0.5" width="42" height="42" rx="21" fill="#CFE3F3"/>
<path d="M18.3634 21.9357C18.0722 22.2258 18.0722 22.6971 18.3634 22.9872C18.6547 23.2773 19.1279 23.2773 19.4192 22.9872L20.5207 21.8901V25.8795C20.5207 26.2904 20.8548 26.6233 21.2674 26.6233C21.68 26.6233 22.0142 26.2904 22.0142 25.8795V21.8901L23.1157 22.9872C23.4078 23.2773 23.8802 23.2773 24.1723 22.9872C24.4636 22.6971 24.4636 22.2258 24.1723 21.9357L21.7958 19.5687C21.5045 19.2786 21.0313 19.2786 20.74 19.5687L18.3634 21.9357Z" fill="#0C345C"/>
<path fill-rule="evenodd" clip-rule="evenodd" d="M31.0584 17.7864V17.7808C31.0584 17.765 31.0584 17.7492 31.0565 17.7344C31.0584 17.7511 31.0584 17.7687 31.0584 17.7864L22.9439 9.60612C22.9112 9.60147 22.8776 9.59961 22.844 9.59961H15.3764C13.3144 9.59961 11.6426 11.2647 11.6426 13.3184V29.6809C11.6426 31.7345 13.3144 33.3996 15.3764 33.3996H27.3246C29.3866 33.3996 31.0584 31.7345 31.0584 29.6809L31.0584 17.7864ZM22.0972 14.8059C22.0972 16.8596 23.769 18.5247 25.831 18.5247H29.5648V29.6809C29.5648 30.9137 28.5623 31.9122 27.3246 31.9122H15.3764C14.1395 31.9122 13.1361 30.9137 13.1361 29.6809V13.3184C13.1361 12.0866 14.1395 11.0872 15.3764 11.0872H22.0972V14.8059ZM23.5907 12.1387L28.5091 17.0372H25.831C24.5933 17.0372 23.5907 16.0378 23.5907 14.8059V12.1387Z" fill="#0C345C"/>
</svg>
