<svg width="42" height="43" viewBox="0 0 42 43" fill="none" xmlns="http://www.w3.org/2000/svg">
<rect y="0.5" width="42" height="42" rx="21" fill="#FFD885"/>
<path d="M29.9144 21.2622C29.9144 20.8696 29.5961 20.5523 29.2045 20.5523C28.8119 20.5523 28.4947 20.8706 28.4947 21.2622C28.4947 25.2569 25.244 28.5076 21.2493 28.5076C17.2526 28.5076 14.0028 25.258 14.0028 21.2622C14.0028 20.8696 13.6845 20.5523 13.2929 20.5523C12.9002 20.5523 12.583 20.8706 12.583 21.2622C12.583 25.8015 16.0919 29.5336 20.5382 29.8967V32.3994H18.1428C17.7501 32.3994 17.4329 32.7177 17.4329 33.1092C17.4329 33.5019 17.7512 33.8191 18.1428 33.8191H24.3557C24.7484 33.8191 25.0656 33.5008 25.0656 33.1092C25.0656 32.7166 24.7473 32.3994 24.3557 32.3994H21.9603V29.8967C26.4055 29.5347 29.9144 25.8015 29.9144 21.2622Z" fill="#0C345C"/>
<path d="M21.2482 27.6556C24.7736 27.6556 27.6415 24.7877 27.6415 21.2623V15.0124C27.6415 11.487 24.7736 8.61914 21.2482 8.61914C17.7228 8.61914 14.8549 11.487 14.8549 15.0124V21.2634C14.8549 24.7877 17.7228 27.6556 21.2482 27.6556ZM16.2757 15.0124C16.2757 12.2713 18.506 10.0399 21.2482 10.0399C23.7487 10.0399 25.8192 11.8983 26.1639 14.3045C26.1551 14.3045 26.1464 14.3024 26.1376 14.3024H23.1067C22.7141 14.3024 22.3969 14.6206 22.3969 15.0122C22.3969 15.4049 22.7151 15.7221 23.1067 15.7221H26.1376C26.1661 15.7221 26.1923 15.7167 26.2197 15.7134V17.435C26.1923 17.4317 26.1661 17.4263 26.1376 17.4263L23.1067 17.4274C22.7141 17.4274 22.3969 17.7457 22.3969 18.1373C22.3969 18.5299 22.7151 18.8471 23.1067 18.8471H26.1376C26.1661 18.8471 26.1923 18.8417 26.2197 18.8384V20.56C26.1923 20.5567 26.1661 20.5513 26.1376 20.5513L23.1067 20.5524C22.7141 20.5524 22.3969 20.8707 22.3969 21.2623C22.3969 21.6549 22.7151 21.9722 23.1067 21.9722H26.1376C26.1464 21.9722 26.1551 21.97 26.1639 21.97C25.8182 24.3763 23.7487 26.2346 21.2482 26.2346C18.5071 26.2346 16.2757 24.0043 16.2757 21.2621V15.0124Z" fill="#0C345C"/>
</svg>
