<svg width="407" height="218" viewBox="0 0 407 218" fill="none" xmlns="http://www.w3.org/2000/svg">
<g clip-path="url(#clip0_199_2863)">
<path opacity="0.2" d="M407 -70C407 89.0329 277.641 218 118.036 218C-41.6412 218 -171 89.0329 -171 -70C-171 -229.033 -41.6412 -358 118.036 -358C277.641 -358 407 -229.033 407 -70Z" fill="white"/>
<path opacity="0.35" d="M336.511 -70.0017C336.511 50.2427 238.703 147.754 118.026 147.754C-2.70576 147.754 -100.514 50.2427 -100.514 -70.0017C-100.514 -190.246 -2.70576 -287.758 118.026 -287.758C238.703 -287.758 336.511 -190.246 336.511 -70.0017Z" fill="white"/>
<path opacity="0.45" d="M268.226 -70.1463C268.226 12.6025 200.918 79.7073 117.871 79.7073C34.7872 79.7073 -32.5215 12.6025 -32.5215 -70.1463C-32.5215 -152.895 34.7872 -220 117.871 -220C200.918 -220 268.226 -152.895 268.226 -70.1463Z" fill="white"/>
</g>
<defs>
<clipPath id="clip0_199_2863">
<rect width="407" height="218" fill="white"/>
</clipPath>
</defs>
</svg>
