<svg width="42" height="43" viewBox="0 0 42 43" fill="none" xmlns="http://www.w3.org/2000/svg">
<rect y="0.5" width="42" height="42" rx="21" fill="#E8E2D9"/>
<path d="M14.3978 21.9144C14.8537 21.9144 15.223 21.5431 15.223 21.0848C15.223 20.6264 14.8537 20.2551 14.3978 20.2551C13.9418 20.2551 13.5725 20.6264 13.5725 21.0848C13.5725 21.5431 13.9418 21.9144 14.3978 21.9144Z" fill="#0C345C"/>
<path d="M17.6988 21.9144C18.1547 21.9144 18.524 21.5431 18.524 21.0848C18.524 20.6264 18.1547 20.2551 17.6988 20.2551C17.2428 20.2551 16.8735 20.6264 16.8735 21.0848C16.8735 21.5431 17.2428 21.9144 17.6988 21.9144Z" fill="#0C345C"/>
<path d="M21.8251 21.085C21.8251 21.5434 21.4558 21.9146 20.9998 21.9146C20.5439 21.9146 20.1746 21.5434 20.1746 21.085C20.1746 20.6266 20.5439 20.2554 20.9998 20.2554C21.4558 20.2554 21.8251 20.6266 21.8251 21.085Z" fill="#0C345C"/>
<path d="M24.3009 21.9144C24.7569 21.9144 25.1262 21.5431 25.1262 21.0848C25.1262 20.6264 24.7569 20.2551 24.3009 20.2551C23.8449 20.2551 23.4756 20.6264 23.4756 21.0848C23.4756 21.5431 23.8449 21.9144 24.3009 21.9144Z" fill="#0C345C"/>
<path d="M28.4272 21.085C28.4272 21.5434 28.0579 21.9146 27.602 21.9146C27.146 21.9146 26.7767 21.5434 26.7767 21.085C26.7767 20.6266 27.146 20.2554 27.602 20.2554C28.0579 20.2554 28.4272 20.6266 28.4272 21.085Z" fill="#0C345C"/>
<path d="M15.223 24.4035C15.223 24.8619 14.8537 25.2332 14.3978 25.2332C13.9418 25.2332 13.5725 24.8619 13.5725 24.4035C13.5725 23.9451 13.9418 23.5739 14.3978 23.5739C14.8537 23.5739 15.223 23.9451 15.223 24.4035Z" fill="#0C345C"/>
<path d="M18.524 24.4035C18.524 24.8619 18.1547 25.2332 17.6988 25.2332C17.2428 25.2332 16.8735 24.8619 16.8735 24.4035C16.8735 23.9451 17.2428 23.5739 17.6988 23.5739C18.1547 23.5739 18.524 23.9451 18.524 24.4035Z" fill="#0C345C"/>
<path d="M20.9998 25.2328C21.4558 25.2328 21.8251 24.8616 21.8251 24.4032C21.8251 23.9448 21.4558 23.5736 20.9998 23.5736C20.5439 23.5736 20.1746 23.9448 20.1746 24.4032C20.1746 24.8616 20.5439 25.2328 20.9998 25.2328Z" fill="#0C345C"/>
<path d="M25.1262 24.4035C25.1262 24.8619 24.7569 25.2332 24.3009 25.2332C23.8449 25.2332 23.4756 24.8619 23.4756 24.4035C23.4756 23.9451 23.8449 23.5739 24.3009 23.5739C24.7569 23.5739 25.1262 23.9451 25.1262 24.4035Z" fill="#0C345C"/>
<path d="M27.602 25.2328C28.0579 25.2328 28.4272 24.8616 28.4272 24.4032C28.4272 23.9448 28.0579 23.5736 27.602 23.5736C27.146 23.5736 26.7767 23.9448 26.7767 24.4032C26.7767 24.8616 27.146 25.2328 27.602 25.2328Z" fill="#0C345C"/>
<path d="M14.3978 28.5514C14.8537 28.5514 15.223 28.1802 15.223 27.7218C15.223 27.2634 14.8537 26.8921 14.3978 26.8921C13.9418 26.8921 13.5725 27.2634 13.5725 27.7218C13.5725 28.1802 13.9418 28.5514 14.3978 28.5514Z" fill="#0C345C"/>
<path d="M27.602 28.5514C28.0579 28.5514 28.4272 28.1802 28.4272 27.7218C28.4272 27.2634 28.0579 26.8921 27.602 26.8921C27.146 26.8921 26.7767 27.2634 26.7767 27.7218C26.7767 28.1802 27.146 28.5514 27.602 28.5514Z" fill="#0C345C"/>
<path d="M16.8735 27.722C16.8735 27.2636 17.2428 26.8923 17.6988 26.8923H24.3009C24.7568 26.8923 25.1261 27.2636 25.1261 27.722C25.1261 28.1803 24.7568 28.5516 24.3009 28.5516H17.6988C17.2428 28.5516 16.8735 28.1803 16.8735 27.722Z" fill="#0C345C"/>
<path fill-rule="evenodd" clip-rule="evenodd" d="M21.9664 16.1072C22.3058 15.1407 23.2228 14.448 24.3008 14.448H28.0144C29.8372 14.448 31.3154 12.9619 31.3154 11.1294C31.3154 10.6711 30.9461 10.2998 30.4902 10.2998C30.0342 10.2998 29.6649 10.6711 29.6649 11.1294C29.6649 12.0462 28.9263 12.7887 28.0144 12.7887H24.3008C22.3047 12.7887 20.6398 14.2136 20.2572 16.1072H11.9221C10.0994 16.1072 8.62109 17.5933 8.62109 19.4257V29.3813C8.62109 31.2137 10.0994 32.6998 11.9221 32.6998H30.0779C31.9007 32.6998 33.379 31.2137 33.379 29.3813V19.4257C33.379 17.5933 31.9007 16.1072 30.0779 16.1072H21.9664ZM11.9219 17.7665C11.01 17.7665 10.2714 18.509 10.2714 19.4257V29.3813C10.2714 30.298 11.01 31.0405 11.9219 31.0405H30.0777C30.9896 31.0405 31.7283 30.298 31.7283 29.3813V19.4257C31.7283 18.509 30.9896 17.7665 30.0777 17.7665H11.9219Z" fill="#0C345C"/>
</svg>
