<svg width="407" height="326" viewBox="0 0 407 326" fill="none" xmlns="http://www.w3.org/2000/svg">
<g clip-path="url(#clip0_55_8656)">
<path opacity="0.15" d="M407 38C407 197.033 277.641 326 118.036 326C-41.6412 326 -171 197.033 -171 38C-171 -121.033 -41.6412 -250 118.036 -250C277.641 -250 407 -121.033 407 38Z" fill="#FFBE33"/>
<path opacity="0.3" d="M336.51 37.9983C336.51 158.243 238.703 255.754 118.026 255.754C-2.70601 255.754 -100.514 158.243 -100.514 37.9983C-100.514 -82.2462 -2.70601 -179.758 118.026 -179.758C238.703 -179.758 336.51 -82.2462 336.51 37.9983Z" fill="#FFBE33"/>
<path opacity="0.4" d="M268.227 37.8537C268.227 120.603 200.919 187.707 117.872 187.707C34.7879 187.707 -32.5208 120.603 -32.5208 37.8537C-32.5208 -44.8952 34.7879 -112 117.872 -112C200.919 -112 268.227 -44.8952 268.227 37.8537Z" fill="#FFBE33"/>
</g>
<defs>
<clipPath id="clip0_55_8656">
<rect width="407" height="326" fill="white"/>
</clipPath>
</defs>
</svg>
