<svg width="47" height="47" viewBox="0 0 47 47" fill="none" xmlns="http://www.w3.org/2000/svg">
<g clip-path="url(#clip0_55_8674)">
<path d="M17.6108 10.1455C17.6108 8.62747 18.2139 7.17165 19.2872 6.09827C20.3606 5.02489 21.8164 4.42188 23.3344 4.42188C24.8524 4.42188 26.3082 5.02489 27.3816 6.09827C28.455 7.17165 29.058 8.62747 29.058 10.1455V19.6847C29.058 21.2027 28.455 22.6586 27.3816 23.7319C26.3082 24.8053 24.8524 25.4083 23.3344 25.4083C21.8164 25.4083 20.3606 24.8053 19.2872 23.7319C18.2139 22.6586 17.6108 21.2027 17.6108 19.6847V10.1455Z" stroke="#FFD886" stroke-width="2.86179" stroke-linecap="round" stroke-linejoin="round"/>
<path d="M9.97974 19.6836C9.97974 23.2256 11.3868 26.6225 13.8913 29.127C16.3959 31.6316 19.7928 33.0386 23.3347 33.0386C26.8767 33.0386 30.2736 31.6316 32.7782 29.127C35.2827 26.6225 36.6898 23.2256 36.6898 19.6836" stroke="#FFD886" stroke-width="2.86179" stroke-linecap="round" stroke-linejoin="round"/>
<path d="M15.7046 40.6699H30.9675" stroke="#FFD886" stroke-width="2.86179" stroke-linecap="round" stroke-linejoin="round"/>
<path d="M23.3335 33.0391V40.6705" stroke="#FFD886" stroke-width="2.86179" stroke-linecap="round" stroke-linejoin="round"/>
</g>
<defs>
<clipPath id="clip0_55_8674">
<rect width="45.7886" height="45.7886" fill="white" transform="translate(0.438965 0.605469)"/>
</clipPath>
</defs>
</svg>
