<svg width="47" height="47" viewBox="0 0 47 47" fill="none" xmlns="http://www.w3.org/2000/svg">
<path d="M16.5596 10.8446C16.4409 10.5921 16.2527 10.3785 16.0172 10.229C15.7816 10.0794 15.5083 10 15.2293 10C14.9503 10 14.677 10.0794 14.4414 10.229C14.2059 10.3785 14.0177 10.5921 13.899 10.8446L2.13977 35.833C2.05762 36.0077 2.01067 36.1969 2.00162 36.3897C1.99256 36.5826 2.02158 36.7753 2.08701 36.9569C2.21916 37.3237 2.4916 37.623 2.84441 37.7889C3.19722 37.9548 3.60149 37.9738 3.9683 37.8417C4.3351 37.7095 4.63438 37.4371 4.80031 37.0843L7.86139 30.5799H22.5972L25.6583 37.0843C25.7405 37.259 25.8562 37.4158 25.999 37.5457C26.1417 37.6757 26.3087 37.7763 26.4903 37.8417C26.6719 37.9071 26.8647 37.9361 27.0575 37.9271C27.2503 37.918 27.4395 37.8711 27.6142 37.7889C27.7889 37.7068 27.9457 37.591 28.0756 37.4482C28.2056 37.3055 28.3062 37.1385 28.3716 36.9569C28.437 36.7753 28.466 36.5826 28.457 36.3897C28.4479 36.1969 28.401 36.0077 28.3188 35.833L16.5596 10.8446ZM9.24494 27.6401L15.2293 14.9236L21.2137 27.6401H9.24494ZM37.2779 18.8207C34.9334 18.8207 33.1015 19.4583 31.8338 20.7169C31.5683 20.9936 31.4215 21.363 31.4247 21.7464C31.4278 22.1298 31.5806 22.4969 31.8506 22.7692C32.1205 23.0415 32.4861 23.1976 32.8695 23.2041C33.2529 23.2106 33.6236 23.0671 33.9026 22.8041C34.6009 22.1114 35.74 21.7605 37.2779 21.7605C39.7088 21.7605 41.6876 23.4141 41.6876 25.4353V26.0269C40.3832 25.1542 38.8473 24.6921 37.2779 24.7003C33.2247 24.7003 29.9284 27.6677 29.9284 31.3149C29.9284 34.9621 33.2247 37.9295 37.2779 37.9295C38.848 37.9364 40.384 37.4723 41.6876 36.5974C41.7059 36.9872 41.8783 37.3538 42.1669 37.6166C42.4555 37.8793 42.8366 38.0167 43.2265 37.9984C43.6163 37.9801 43.9829 37.8077 44.2457 37.5191C44.5084 37.2306 44.6457 36.8494 44.6275 36.4596V25.4353C44.6275 21.7881 41.3312 18.8207 37.2779 18.8207ZM37.2779 34.9897C34.8471 34.9897 32.8682 33.336 32.8682 31.3149C32.8682 29.2938 34.8471 27.6401 37.2779 27.6401C39.7088 27.6401 41.6876 29.2938 41.6876 31.3149C41.6876 33.336 39.7088 34.9897 37.2779 34.9897Z" fill="#FFD886"/>
</svg>
