<svg width="36" height="36" viewBox="0 0 36 36" fill="none" xmlns="http://www.w3.org/2000/svg">
<path d="M14.0482 16.2928C14.0482 14.9116 12.8463 13.7968 11.3571 13.7968C9.86793 13.7968 8.66602 14.9116 8.66602 16.2928C8.66602 17.6741 9.86793 18.7889 11.3571 18.7889C12.8463 18.7889 14.0482 17.6741 14.0482 16.2928ZM10.1779 16.2928C10.1779 15.6899 10.707 15.1991 11.3571 15.1991C12.0072 15.1991 12.5363 15.6899 12.5363 16.2928C12.5363 16.8958 12.0072 17.3866 11.3571 17.3866C10.707 17.3866 10.1779 16.8958 10.1779 16.2928Z" fill="#0C345C"/>
<path d="M23.3083 13.7968C21.8191 13.7968 20.6172 14.9116 20.6172 16.2928C20.6172 17.6741 21.8191 18.7889 23.3083 18.7889C24.7974 18.7889 25.9993 17.6741 25.9993 16.2928C25.9993 14.9116 24.7974 13.7968 23.3083 13.7968ZM23.3083 17.3866C22.6582 17.3866 22.129 16.8958 22.129 16.2928C22.129 15.6899 22.6582 15.1991 23.3083 15.1991C23.9584 15.1991 24.4875 15.6899 24.4875 16.2928C24.4875 16.8958 23.9584 17.3866 23.3083 17.3866Z" fill="#0C345C"/>
<path d="M14.8722 12.9412V18.7888H16.384V12.9412H18.0168V18.7888H19.5287V12.9412H24.0642V12.2401C24.0642 12.0087 24.0491 11.7773 24.0188 11.553H10.6466C10.6163 11.7773 10.6012 12.0087 10.6012 12.2401V12.9412H14.8722Z" fill="#0C345C"/>
<path d="M10.6012 19.7914V20.4925C10.6012 23.7038 13.2167 26.3471 16.573 26.6906V28.5977H15.4391C14.6076 28.5977 13.9273 29.2287 13.9273 30H20.7306C20.7306 29.2287 20.0502 28.5977 19.2187 28.5977H18.0848V26.6906C21.4487 26.34 24.0566 23.7038 24.0566 20.4925V19.7914H10.6012Z" fill="#0C345C"/>
<path d="M23.6709 10.1508C22.7412 7.73182 20.2542 6 17.3363 6C14.4109 6 11.9239 7.73182 11.0017 10.1508H23.6709Z" fill="#0C345C"/>
<path d="M4.5 2L5.71541 5.28459L9 6.5L5.71541 7.71541L4.5 11L3.28459 7.71541L0 6.5L3.28459 5.28459L4.5 2Z" fill="#0C345C"/>
<path d="M30.5 22L31.9855 26.0145L36 27.5L31.9855 28.9855L30.5 33L29.0145 28.9855L25 27.5L29.0145 26.0145L30.5 22Z" fill="#0C345C"/>
</svg>
