<svg viewBox="0 0 1235 1122" fill="none" xmlns="http://www.w3.org/2000/svg">
<path fill-rule="evenodd" clip-rule="evenodd" d="M502.24 13.6325C636.309 31.3093 734.256 120.559 831.116 214.905C956.433 336.969 1154.65 446.771 1123.66 618.926C1092.36 792.839 872.178 839.194 707.283 902.806C565.645 957.447 410.603 1016.92 276.521 945.732C146.513 876.704 124.547 714.09 84.9028 572.354C41.1404 415.896 -54.1881 241.167 43.0417 110.998C141.544 -20.8744 339.031 -7.88641 502.24 13.6325Z" fill="#EAE4DC"/>
<path fill-rule="evenodd" clip-rule="evenodd" d="M756.276 860.512C732.842 778.647 775.455 684.227 844.651 634.194C907.299 588.897 991.103 615.216 1065.3 637.073C1122.9 654.04 1180.21 683.861 1202.21 739.525C1221.57 788.508 1175.46 833.349 1163.12 884.559C1145.9 956.092 1185.98 1060.81 1117.94 1089.43C1050.63 1117.74 1004.47 1016.22 942.839 977.209C877.633 935.935 777.463 934.527 756.276 860.512Z" fill="white"/>
</svg>
