<svg width="41" height="54" viewBox="0 0 41 54" fill="none" xmlns="http://www.w3.org/2000/svg">
<path d="M12.7853 10.3159C12.7853 8.24302 13.598 6.25501 15.0447 4.78924C16.4914 3.32346 18.4536 2.5 20.4995 2.5C22.5455 2.5 24.5077 3.32346 25.9544 4.78924C27.4011 6.25501 28.2138 8.24302 28.2138 10.3159V23.3425C28.2138 25.4154 27.4011 27.4034 25.9544 28.8692C24.5077 30.335 22.5455 31.1584 20.4995 31.1584C18.4536 31.1584 16.4914 30.335 15.0447 28.8692C13.598 27.4034 12.7853 25.4154 12.7853 23.3425V10.3159Z" fill="white"/>
<path d="M2.5 23.341C2.5 28.1778 4.39642 32.8165 7.77208 36.2367C11.1477 39.6568 15.7261 41.5782 20.5 41.5782C25.2739 41.5782 29.8523 39.6568 33.2279 36.2367C36.6036 32.8165 38.5 28.1778 38.5 23.341M10.216 51.9992H30.7874M20.4983 41.5787V52M12.7853 10.3159C12.7853 8.24302 13.598 6.25501 15.0447 4.78924C16.4914 3.32346 18.4536 2.5 20.4995 2.5C22.5455 2.5 24.5077 3.32346 25.9544 4.78924C27.4011 6.25501 28.2138 8.24302 28.2138 10.3159V23.3425C28.2138 25.4154 27.4011 27.4034 25.9544 28.8692C24.5077 30.335 22.5455 31.1584 20.4995 31.1584C18.4536 31.1584 16.4914 30.335 15.0447 28.8692C13.598 27.4034 12.7853 25.4154 12.7853 23.3425V10.3159Z" stroke="white" stroke-width="4" stroke-linecap="round" stroke-linejoin="round"/>
</svg>
