<?xml version="1.0" encoding="UTF-8"?>
<svg viewBox="0 0 134 151" fill="none" xmlns="http://www.w3.org/2000/svg">
    <path fill-rule="evenodd" clip-rule="evenodd" d="M110.593 37.2182C117.13 52.3511 122.325 69.2551 114.988 84.0167C106.856 100.377 90.6427 112.837 72.4126 114.037C54.9083 115.189 41.4205 101.789 28.7151 89.694C15.3753 76.9946 -0.985972 63.837 0.38802 45.4703C1.79827 26.6191 18.0187 12.3194 35.108 4.23768C49.9125 -2.76356 66.7162 0.449522 81.7229 7.00618C95.1522 12.8736 104.782 23.7646 110.593 37.2182Z" fill="white"/>
    <path fill-rule="evenodd" clip-rule="evenodd" d="M92.952 82.7617C100.917 82.9938 105.377 91.2392 111.646 96.1616C119.557 102.374 132.374 104.914 133.842 114.869C135.343 125.049 125.851 133.27 118.12 140.055C110.996 146.308 102.428 150.781 92.952 150.756C83.5006 150.73 74.289 146.907 67.9179 139.921C61.8004 133.213 59.1763 123.89 60.2252 114.869C61.1724 106.723 67.2843 100.781 73.1365 95.0397C78.9035 89.3819 84.8792 82.5266 92.952 82.7617Z" fill="#F8AD9D"/>
</svg>
