<?xml version="1.0" encoding="UTF-8"?>
<svg viewBox="0 0 207 188" fill="none" xmlns="http://www.w3.org/2000/svg">
    <path fill-rule="evenodd" clip-rule="evenodd" d="M85.9356 2.34084C108.914 5.37613 125.702 20.7012 142.303 36.9014C163.782 57.8611 197.756 76.7151 192.444 106.276C187.078 136.139 149.341 144.098 121.079 155.021C96.8029 164.403 70.2295 174.616 47.2487 162.392C24.9659 150.539 21.2012 122.617 14.4064 98.2792C6.90574 71.4136 -9.43303 41.4109 7.23161 19.0595C24.1143 -3.58436 57.9626 -1.35418 85.9356 2.34084Z" fill="#FFD886"/>
    <path fill-rule="evenodd" clip-rule="evenodd" d="M129.129 147.262C125.114 133.237 132.415 117.06 144.27 108.489C155.003 100.728 169.361 105.237 182.072 108.982C191.94 111.889 201.758 116.998 205.528 126.534C208.845 134.926 200.945 142.609 198.832 151.382C195.88 163.637 202.747 181.579 191.09 186.482C179.559 191.332 171.65 173.939 161.092 167.255C149.92 160.184 132.759 159.943 129.129 147.262Z" fill="white"/>
</svg>
