<svg width="82" height="60" viewBox="0 0 82 60" fill="none" xmlns="http://www.w3.org/2000/svg">
<path d="M33.8164 0V10.084C28.5449 10.084 23.6378 11.7927 19.0953 15.2101C14.5528 18.5714 12.2816 22.605 12.2816 27.3109C12.2816 30.112 13.4032 31.5126 15.6464 31.5126C16.1511 31.5126 17.1606 31.3165 18.6747 30.9244C20.245 30.5882 21.5068 30.4202 22.4602 30.4202C25.5446 30.4202 28.4327 31.6807 31.1246 34.2017C33.8725 36.6667 35.2465 40.084 35.2465 44.4538C35.2465 48.7115 33.8445 52.381 31.0404 55.4622C28.2364 58.4874 24.3949 60 19.5159 60C13.6836 60 8.97285 57.8151 5.38371 53.4454C1.79457 49.0196 0 42.8852 0 35.042C0 24.2297 3.2807 15.7703 9.84209 9.66387C16.4596 3.5014 24.451 0.280112 33.8164 0ZM79.9985 0V10.084C75.0074 10.084 70.1564 11.7647 65.4457 15.1261C60.791 18.4314 58.4637 22.493 58.4637 27.3109C58.4637 30.112 59.5853 31.5126 61.8285 31.5126C62.3332 31.5126 63.3427 31.3165 64.8568 30.9244C66.4271 30.5882 67.6889 30.4202 68.6423 30.4202C71.8949 30.4202 74.8391 31.7087 77.4749 34.2857C80.1107 36.8627 81.4286 40.2521 81.4286 44.4538C81.4286 48.7115 80.0266 52.381 77.2225 55.4622C74.4185 58.4874 70.577 60 65.6981 60C59.8657 60 55.155 57.8151 51.5658 53.4454C47.9767 49.0196 46.1821 42.8852 46.1821 35.042C46.1821 24.2297 49.4628 15.7703 56.0242 9.66387C62.6417 3.5014 70.6331 0.280112 79.9985 0Z" fill="#DBD1C2"/>
</svg>
