<svg width="337" height="387" viewBox="0 0 337 387" fill="none" xmlns="http://www.w3.org/2000/svg">
<path fill-rule="evenodd" clip-rule="evenodd" d="M282.599 123.686C297.791 158.857 309.864 198.145 292.813 232.453C273.914 270.476 236.232 299.436 193.862 302.224C153.18 304.901 121.832 273.759 92.3031 245.647C61.2996 216.132 23.2738 185.552 26.4671 142.865C29.7447 99.0526 67.4432 65.8182 107.161 47.0352C141.569 30.7633 180.623 38.231 215.501 53.4695C246.712 67.1062 269.093 92.4184 282.599 123.686Z" fill="white"/>
<path fill-rule="evenodd" clip-rule="evenodd" d="M241.591 229.014C260.104 229.553 270.472 248.711 285.043 260.149C303.431 274.582 333.22 280.485 336.632 303.616C340.122 327.27 318.059 346.371 300.09 362.136C283.531 376.664 263.616 387.059 241.591 387C219.623 386.941 198.212 378.057 183.404 361.825C169.185 346.238 163.085 324.576 165.523 303.616C167.725 284.688 181.931 270.882 195.534 257.542C208.938 244.396 222.827 228.467 241.591 229.014Z" fill="#F8AD9D"/>
</svg>
