<svg width="295" height="268" viewBox="0 0 295 268" fill="none" xmlns="http://www.w3.org/2000/svg">
<path fill-rule="evenodd" clip-rule="evenodd" d="M119.76 3.25688C151.783 7.47997 175.178 28.8022 198.314 51.342C228.247 80.5039 275.593 106.736 268.191 147.865C260.713 189.414 208.122 200.488 168.736 215.686C134.905 228.74 97.872 242.949 65.8459 225.941C34.7926 209.45 29.546 170.6 20.0767 136.739C9.62386 99.3599 -13.1459 57.6162 10.078 26.5181C33.6058 -4.98702 80.7768 -1.88411 119.76 3.25688Z" fill="#FFD886"/>
<path fill-rule="evenodd" clip-rule="evenodd" d="M180.512 205.498C174.915 185.943 185.093 163.389 201.622 151.438C216.587 140.618 236.604 146.905 254.328 152.126C268.085 156.179 281.774 163.302 287.03 176.598C291.655 188.298 280.64 199.009 277.694 211.242C273.579 228.329 283.154 253.343 266.9 260.179C250.823 266.941 239.797 242.691 225.076 233.373C209.5 223.514 185.573 223.177 180.512 205.498Z" fill="white"/>
</svg>
